solid Created by Gmsh
facet normal 0 0 1
  outer loop
    vertex 12.48829478441373 5.87699155310889 0
    vertex 21.38546238533093 7.14525135818411 0
    vertex 14.11713869267271 14.39466799945321 0
  endloop
endfacet
facet normal 0 0 1
  outer loop
    vertex 78.51170521558626 16.12300844689111 0
    vertex 69.61453761466908 14.85474864181589 0
    vertex 76.88286130732729 7.605332000546788 0
  endloop
endfacet
facet normal 0 0 1
  outer loop
    vertex 76.88286130732729 7.605332000546788 0
    vertex 69.61453761466908 14.85474864181589 0
    vertex 66.64265916510089 7.280982577895818 0
  endloop
endfacet
facet normal -0 0 1
  outer loop
    vertex 14.11713869267271 14.39466799945321 0
    vertex 21.38546238533093 7.14525135818411 0
    vertex 24.35734083489911 14.71901742210418 0
  endloop
endfacet
facet normal -0 0 1
  outer loop
    vertex 76.88286130732729 7.605332000546788 0
    vertex 85.11404625870352 5.212900115671535 0
    vertex 84.7873699861904 11.12583524447758 0
  endloop
endfacet
facet normal 0 0 1
  outer loop
    vertex 14.11713869267271 14.39466799945321 0
    vertex 5.885953741296483 16.78709988432847 0
    vertex 6.212630013809601 10.87416475552242 0
  endloop
endfacet
facet normal -0 0 1
  outer loop
    vertex 31.84999999999999 7.880831174438374 0
    vertex 40.94999999999999 5.976166234887675 0
    vertex 40.95000000000005 14.11916882556163 0
  endloop
endfacet
facet normal 0 0 1
  outer loop
    vertex 40.95000000000005 14.11916882556163 0
    vertex 32.17146816697985 16.14380348442084 0
    vertex 31.84999999999999 7.880831174438374 0
  endloop
endfacet
facet normal 0 0 1
  outer loop
    vertex 59.15000000000001 14.11916882556163 0
    vertex 50.05000000000001 16.02383376511233 0
    vertex 50.04999999999996 7.880831174438374 0
  endloop
endfacet
facet normal -0 0 1
  outer loop
    vertex 50.04999999999996 7.880831174438374 0
    vertex 58.82853183302014 5.856196515579164 0
    vertex 59.15000000000001 14.11916882556163 0
  endloop
endfacet
facet normal 0 0 1
  outer loop
    vertex 24.35734083489911 14.71901742210418 0
    vertex 21.38546238533093 7.14525135818411 0
    vertex 31.84999999999999 7.880831174438374 0
  endloop
endfacet
facet normal 0 -0 1
  outer loop
    vertex 31.84999999999999 7.880831174438374 0
    vertex 32.17146816697985 16.14380348442084 0
    vertex 24.35734083489911 14.71901742210418 0
  endloop
endfacet
facet normal 0 -0 1
  outer loop
    vertex 66.64265916510089 7.280982577895818 0
    vertex 69.61453761466908 14.85474864181589 0
    vertex 59.15000000000001 14.11916882556163 0
  endloop
endfacet
facet normal 0 -0 1
  outer loop
    vertex 50.04999999999996 7.880831174438374 0
    vertex 50.05000000000001 16.02383376511233 0
    vertex 40.95000000000005 14.11916882556163 0
  endloop
endfacet
facet normal 0 0 1
  outer loop
    vertex 59.15000000000001 14.11916882556163 0
    vertex 58.82853183302014 5.856196515579164 0
    vertex 66.64265916510089 7.280982577895818 0
  endloop
endfacet
facet normal 0 0 1
  outer loop
    vertex 40.95000000000005 14.11916882556163 0
    vertex 40.94999999999999 5.976166234887675 0
    vertex 50.04999999999996 7.880831174438374 0
  endloop
endfacet
facet normal 0 -0 1
  outer loop
    vertex 81.89999999999991 0 0
    vertex 85.11404625870352 5.212900115671535 0
    vertex 76.88286130732729 7.605332000546788 0
  endloop
endfacet
facet normal 0 0 1
  outer loop
    vertex 9.100000000000094 22 0
    vertex 5.885953741296483 16.78709988432847 0
    vertex 14.11713869267271 14.39466799945321 0
  endloop
endfacet
facet normal 0 0 1
  outer loop
    vertex 6.212630013809601 10.87416475552242 0
    vertex 5.560184959644666 4.816897928392932 0
    vertex 12.48829478441373 5.87699155310889 0
  endloop
endfacet
facet normal 0 -0 1
  outer loop
    vertex 84.7873699861904 11.12583524447758 0
    vertex 85.43981504035534 17.18310207160707 0
    vertex 78.51170521558626 16.12300844689111 0
  endloop
endfacet
facet normal 0 0 1
  outer loop
    vertex 54.59999999999995 0 0
    vertex 50.04999999999996 7.880831174438374 0
    vertex 45.49999999999996 0 0
  endloop
endfacet
facet normal -0 0 1
  outer loop
    vertex 36.40000000000005 22 0
    vertex 40.95000000000005 14.11916882556163 0
    vertex 45.50000000000004 22 0
  endloop
endfacet
facet normal -0 0 1
  outer loop
    vertex 54.60000000000002 22 0
    vertex 59.15000000000001 14.11916882556163 0
    vertex 63.7 22 0
  endloop
endfacet
facet normal 0 0 1
  outer loop
    vertex 36.39999999999998 0 0
    vertex 31.84999999999999 7.880831174438374 0
    vertex 27.3 0 0
  endloop
endfacet
facet normal -0 0 1
  outer loop
    vertex 18.20000000000009 22 0
    vertex 24.35734083489911 14.71901742210418 0
    vertex 27.30000000000007 22 0
  endloop
endfacet
facet normal 0 0 1
  outer loop
    vertex 72.79999999999991 0 0
    vertex 66.64265916510089 7.280982577895818 0
    vertex 63.69999999999993 0 0
  endloop
endfacet
facet normal -0 0 1
  outer loop
    vertex 9.100000000000094 22 0
    vertex 14.11713869267271 14.39466799945321 0
    vertex 18.20000000000009 22 0
  endloop
endfacet
facet normal 0 0 1
  outer loop
    vertex 81.89999999999991 0 0
    vertex 76.88286130732729 7.605332000546788 0
    vertex 72.79999999999991 0 0
  endloop
endfacet
facet normal -0 0 1
  outer loop
    vertex 0 22 0
    vertex 5.885953741296483 16.78709988432847 0
    vertex 9.100000000000094 22 0
  endloop
endfacet
facet normal 0 0 1
  outer loop
    vertex 91 0 0
    vertex 85.11404625870352 5.212900115671535 0
    vertex 81.89999999999991 0 0
  endloop
endfacet
facet normal 0 0 1
  outer loop
    vertex 9.100000000000007 0 0
    vertex 5.560184959644666 4.816897928392932 0
    vertex 0 0 0
  endloop
endfacet
facet normal -0 0 1
  outer loop
    vertex 81.89999999999999 22 0
    vertex 85.43981504035534 17.18310207160707 0
    vertex 91 22 0
  endloop
endfacet
facet normal 0 0 1
  outer loop
    vertex 18.20000000000009 22 0
    vertex 14.11713869267271 14.39466799945321 0
    vertex 24.35734083489911 14.71901742210418 0
  endloop
endfacet
facet normal 0 -0 1
  outer loop
    vertex 72.79999999999991 0 0
    vertex 76.88286130732729 7.605332000546788 0
    vertex 66.64265916510089 7.280982577895818 0
  endloop
endfacet
facet normal 0 0 1
  outer loop
    vertex 24.35734083489911 14.71901742210418 0
    vertex 32.17146816697985 16.14380348442084 0
    vertex 27.30000000000007 22 0
  endloop
endfacet
facet normal 0 0 1
  outer loop
    vertex 31.84999999999999 7.880831174438374 0
    vertex 21.38546238533093 7.14525135818411 0
    vertex 27.3 0 0
  endloop
endfacet
facet normal 0 0 1
  outer loop
    vertex 50.04999999999996 7.880831174438374 0
    vertex 40.94999999999999 5.976166234887675 0
    vertex 45.49999999999996 0 0
  endloop
endfacet
facet normal 0 0 1
  outer loop
    vertex 36.40000000000005 22 0
    vertex 32.17146816697985 16.14380348442084 0
    vertex 40.95000000000005 14.11916882556163 0
  endloop
endfacet
facet normal 0 -0 1
  outer loop
    vertex 36.39999999999998 0 0
    vertex 40.94999999999999 5.976166234887675 0
    vertex 31.84999999999999 7.880831174438374 0
  endloop
endfacet
facet normal 0 -0 1
  outer loop
    vertex 54.59999999999995 0 0
    vertex 58.82853183302014 5.856196515579164 0
    vertex 50.04999999999996 7.880831174438374 0
  endloop
endfacet
facet normal 0 0 1
  outer loop
    vertex 54.60000000000002 22 0
    vertex 50.05000000000001 16.02383376511233 0
    vertex 59.15000000000001 14.11916882556163 0
  endloop
endfacet
facet normal 0 0 1
  outer loop
    vertex 66.64265916510089 7.280982577895818 0
    vertex 58.82853183302014 5.856196515579164 0
    vertex 63.69999999999993 0 0
  endloop
endfacet
facet normal 0 0 1
  outer loop
    vertex 59.15000000000001 14.11916882556163 0
    vertex 69.61453761466908 14.85474864181589 0
    vertex 63.7 22 0
  endloop
endfacet
facet normal 0 0 1
  outer loop
    vertex 40.95000000000005 14.11916882556163 0
    vertex 50.05000000000001 16.02383376511233 0
    vertex 45.50000000000004 22 0
  endloop
endfacet
facet normal -0 0 1
  outer loop
    vertex 6.212630013809601 10.87416475552242 0
    vertex 12.48829478441373 5.87699155310889 0
    vertex 14.11713869267271 14.39466799945321 0
  endloop
endfacet
facet normal 0 0 1
  outer loop
    vertex 84.7873699861904 11.12583524447758 0
    vertex 78.51170521558626 16.12300844689111 0
    vertex 76.88286130732729 7.605332000546788 0
  endloop
endfacet
facet normal 0 0 1
  outer loop
    vertex 0 7.333333333333352 0
    vertex 6.212630013809601 10.87416475552242 0
    vertex 0 14.66666666666669 0
  endloop
endfacet
facet normal 0 0 1
  outer loop
    vertex 91 14.66666666666665 0
    vertex 84.7873699861904 11.12583524447758 0
    vertex 91 7.333333333333311 0
  endloop
endfacet
facet normal 0 0 1
  outer loop
    vertex 12.48829478441373 5.87699155310889 0
    vertex 5.560184959644666 4.816897928392932 0
    vertex 9.100000000000007 0 0
  endloop
endfacet
facet normal 0 0 1
  outer loop
    vertex 78.51170521558626 16.12300844689111 0
    vertex 85.43981504035534 17.18310207160707 0
    vertex 81.89999999999999 22 0
  endloop
endfacet
facet normal -0 0 1
  outer loop
    vertex 72.79999999999998 22 0
    vertex 78.51170521558626 16.12300844689111 0
    vertex 81.89999999999999 22 0
  endloop
endfacet
facet normal 0 0 1
  outer loop
    vertex 18.20000000000001 0 0
    vertex 12.48829478441373 5.87699155310889 0
    vertex 9.100000000000007 0 0
  endloop
endfacet
facet normal 0 -0 1
  outer loop
    vertex 18.20000000000001 0 0
    vertex 21.38546238533093 7.14525135818411 0
    vertex 12.48829478441373 5.87699155310889 0
  endloop
endfacet
facet normal 0 0 1
  outer loop
    vertex 72.79999999999998 22 0
    vertex 69.61453761466908 14.85474864181589 0
    vertex 78.51170521558626 16.12300844689111 0
  endloop
endfacet
facet normal 0 0 1
  outer loop
    vertex 27.3 0 0
    vertex 21.38546238533093 7.14525135818411 0
    vertex 18.20000000000001 0 0
  endloop
endfacet
facet normal -0 0 1
  outer loop
    vertex 27.30000000000007 22 0
    vertex 32.17146816697985 16.14380348442084 0
    vertex 36.40000000000005 22 0
  endloop
endfacet
facet normal 0 0 1
  outer loop
    vertex 45.49999999999996 0 0
    vertex 40.94999999999999 5.976166234887675 0
    vertex 36.39999999999998 0 0
  endloop
endfacet
facet normal 0 0 1
  outer loop
    vertex 63.69999999999993 0 0
    vertex 58.82853183302014 5.856196515579164 0
    vertex 54.59999999999995 0 0
  endloop
endfacet
facet normal -0 0 1
  outer loop
    vertex 45.50000000000004 22 0
    vertex 50.05000000000001 16.02383376511233 0
    vertex 54.60000000000002 22 0
  endloop
endfacet
facet normal -0 0 1
  outer loop
    vertex 63.7 22 0
    vertex 69.61453761466908 14.85474864181589 0
    vertex 72.79999999999998 22 0
  endloop
endfacet
facet normal 0 0 1
  outer loop
    vertex 6.212630013809601 10.87416475552242 0
    vertex 5.885953741296483 16.78709988432847 0
    vertex 0 14.66666666666669 0
  endloop
endfacet
facet normal 0 0 1
  outer loop
    vertex 84.7873699861904 11.12583524447758 0
    vertex 85.11404625870352 5.212900115671535 0
    vertex 91 7.333333333333311 0
  endloop
endfacet
facet normal -0 0 1
  outer loop
    vertex 0 7.333333333333352 0
    vertex 5.560184959644666 4.816897928392932 0
    vertex 6.212630013809601 10.87416475552242 0
  endloop
endfacet
facet normal 0 0 1
  outer loop
    vertex 91 14.66666666666665 0
    vertex 85.43981504035534 17.18310207160707 0
    vertex 84.7873699861904 11.12583524447758 0
  endloop
endfacet
facet normal 0 0 1
  outer loop
    vertex 0 14.66666666666669 0
    vertex 5.885953741296483 16.78709988432847 0
    vertex 0 22 0
  endloop
endfacet
facet normal 0 0 1
  outer loop
    vertex 91 7.333333333333311 0
    vertex 85.11404625870352 5.212900115671535 0
    vertex 91 0 0
  endloop
endfacet
facet normal 0 0 1
  outer loop
    vertex 91 22 0
    vertex 85.43981504035534 17.18310207160707 0
    vertex 91 14.66666666666665 0
  endloop
endfacet
facet normal 0 0 1
  outer loop
    vertex 0 0 0
    vertex 5.560184959644666 4.816897928392932 0
    vertex 0 7.333333333333352 0
  endloop
endfacet
facet normal -1 0 0
  outer loop
    vertex 0 7.333333333333352 0
    vertex 0 11.00000000000001 6.794260136545447
    vertex 0 14.66666666666669 0
  endloop
endfacet
facet normal -1 0 0
  outer loop
    vertex 0 11.00000000000001 6.794260136545447
    vertex 0 5.72157967977979 11.81880912189013
    vertex 0 10.99999999999999 13.53531616031632
  endloop
endfacet
facet normal -1 0 0
  outer loop
    vertex 0 10.99999999999999 13.53531616031632
    vertex 0 16.2784203202202 11.81880912189012
    vertex 0 11.00000000000001 6.794260136545447
  endloop
endfacet
facet normal -1 0 0
  outer loop
    vertex 0 0 9.000000000000028
    vertex 0 4.996144745345434 5.583278434479003
    vertex 0 0 0
  endloop
endfacet
facet normal -1 0 0
  outer loop
    vertex 0 22 0
    vertex 0 17.00385525465457 5.583278434478983
    vertex 0 22 8.999999999999972
  endloop
endfacet
facet normal -1 0 0
  outer loop
    vertex 0 22 8.999999999999972
    vertex 0 16.2784203202202 11.81880912189012
    vertex 0 22 18
  endloop
endfacet
facet normal -1 0 0
  outer loop
    vertex 0 0 18
    vertex 0 5.72157967977979 11.81880912189013
    vertex 0 0 9.000000000000028
  endloop
endfacet
facet normal -1 0 0
  outer loop
    vertex 0 4.996144745345434 5.583278434479003
    vertex 0 5.72157967977979 11.81880912189013
    vertex 0 11.00000000000001 6.794260136545447
  endloop
endfacet
facet normal -1 0 0
  outer loop
    vertex 0 11.00000000000001 6.794260136545447
    vertex 0 16.2784203202202 11.81880912189012
    vertex 0 17.00385525465457 5.583278434478983
  endloop
endfacet
facet normal -1 0 0
  outer loop
    vertex 0 0 0
    vertex 0 4.996144745345434 5.583278434479003
    vertex 0 7.333333333333352 0
  endloop
endfacet
facet normal -1 0 0
  outer loop
    vertex 0 14.66666666666669 0
    vertex 0 17.00385525465457 5.583278434478983
    vertex 0 22 0
  endloop
endfacet
facet normal -1 -0 0
  outer loop
    vertex 0 22 18
    vertex 0 16.2784203202202 11.81880912189012
    vertex 0 14.66666666666665 18
  endloop
endfacet
facet normal -1 -0 0
  outer loop
    vertex 0 7.333333333333311 18
    vertex 0 5.72157967977979 11.81880912189013
    vertex 0 0 18
  endloop
endfacet
facet normal -1 -0 0
  outer loop
    vertex 0 14.66666666666665 18
    vertex 0 10.99999999999999 13.53531616031632
    vertex 0 7.333333333333311 18
  endloop
endfacet
facet normal -1 0 0
  outer loop
    vertex 0 7.333333333333352 0
    vertex 0 4.996144745345434 5.583278434479003
    vertex 0 11.00000000000001 6.794260136545447
  endloop
endfacet
facet normal -1 0 0
  outer loop
    vertex 0 11.00000000000001 6.794260136545447
    vertex 0 17.00385525465457 5.583278434478983
    vertex 0 14.66666666666669 0
  endloop
endfacet
facet normal -1 0 -0
  outer loop
    vertex 0 14.66666666666665 18
    vertex 0 16.2784203202202 11.81880912189012
    vertex 0 10.99999999999999 13.53531616031632
  endloop
endfacet
facet normal -1 -0 0
  outer loop
    vertex 0 10.99999999999999 13.53531616031632
    vertex 0 5.72157967977979 11.81880912189013
    vertex 0 7.333333333333311 18
  endloop
endfacet
facet normal -1 0 0
  outer loop
    vertex 0 17.00385525465457 5.583278434478983
    vertex 0 16.2784203202202 11.81880912189012
    vertex 0 22 8.999999999999972
  endloop
endfacet
facet normal -1 0 0
  outer loop
    vertex 0 0 9.000000000000028
    vertex 0 5.72157967977979 11.81880912189013
    vertex 0 4.996144745345434 5.583278434479003
  endloop
endfacet
facet normal 1 0 0
  outer loop
    vertex 91 22 0
    vertex 91 18.33333333333332 -2.5
    vertex 91 22 -5
  endloop
endfacet
facet normal 1 0 0
  outer loop
    vertex 91 14.66666666666665 -5
    vertex 91 18.33333333333332 -2.5
    vertex 91 14.66666666666665 0
  endloop
endfacet
facet normal 1 0 0
  outer loop
    vertex 91 7.333333333333311 -5
    vertex 91 10.99999999999998 -2.5
    vertex 91 7.333333333333311 0
  endloop
endfacet
facet normal 1 0 0
  outer loop
    vertex 91 14.66666666666665 0
    vertex 91 10.99999999999998 -2.5
    vertex 91 14.66666666666665 -5
  endloop
endfacet
facet normal 1 0 0
  outer loop
    vertex 91 0 -5
    vertex 91 3.666666666666655 -2.5
    vertex 91 0 0
  endloop
endfacet
facet normal 1 0 0
  outer loop
    vertex 91 7.333333333333311 0
    vertex 91 3.666666666666655 -2.5
    vertex 91 7.333333333333311 -5
  endloop
endfacet
facet normal 1 -0 0
  outer loop
    vertex 91 0 0
    vertex 91 3.666666666666655 -2.5
    vertex 91 7.333333333333311 0
  endloop
endfacet
facet normal 1 -0 0
  outer loop
    vertex 91 14.66666666666665 0
    vertex 91 18.33333333333332 -2.5
    vertex 91 22 0
  endloop
endfacet
facet normal 1 0 0
  outer loop
    vertex 91 7.333333333333311 -5
    vertex 91 3.666666666666655 -2.5
    vertex 91 0 -5
  endloop
endfacet
facet normal 1 0 0
  outer loop
    vertex 91 22 -5
    vertex 91 18.33333333333332 -2.5
    vertex 91 14.66666666666665 -5
  endloop
endfacet
facet normal 1 -0 0
  outer loop
    vertex 91 7.333333333333311 0
    vertex 91 10.99999999999998 -2.5
    vertex 91 14.66666666666665 0
  endloop
endfacet
facet normal 1 0 0
  outer loop
    vertex 91 14.66666666666665 -5
    vertex 91 10.99999999999998 -2.5
    vertex 91 7.333333333333311 -5
  endloop
endfacet
facet normal 0 1 -0
  outer loop
    vertex 91 0 -5
    vertex 86.44999999999997 0 -2.5
    vertex 91 0 0
  endloop
endfacet
facet normal 0 1 0
  outer loop
    vertex 0 0 0
    vertex 4.550000000000026 0 -2.5
    vertex 0 0 -5
  endloop
endfacet
facet normal 0 1 0
  outer loop
    vertex 72.79999999999991 0 0
    vertex 77.34999999999994 0 -2.5
    vertex 72.79999999999998 0 -5
  endloop
endfacet
facet normal 0 1 0
  outer loop
    vertex 18.20000000000009 0 -5
    vertex 13.65000000000005 0 -2.5
    vertex 18.20000000000001 0 0
  endloop
endfacet
facet normal 0 1 0
  outer loop
    vertex 36.39999999999998 0 0
    vertex 40.95000000000001 0 -2.5
    vertex 36.40000000000005 0 -5
  endloop
endfacet
facet normal 0 1 0
  outer loop
    vertex 27.30000000000007 0 -5
    vertex 22.75000000000004 0 -2.5
    vertex 27.3 0 0
  endloop
endfacet
facet normal 0 1 0
  outer loop
    vertex 45.49999999999996 0 0
    vertex 50.04999999999999 0 -2.5
    vertex 45.50000000000004 0 -5
  endloop
endfacet
facet normal 0 1 0
  outer loop
    vertex 36.40000000000005 0 -5
    vertex 31.85000000000003 0 -2.5
    vertex 36.39999999999998 0 0
  endloop
endfacet
facet normal 0 1 0
  outer loop
    vertex 54.59999999999995 0 0
    vertex 59.14999999999997 0 -2.5
    vertex 54.60000000000002 0 -5
  endloop
endfacet
facet normal 0 1 0
  outer loop
    vertex 63.69999999999993 0 0
    vertex 68.24999999999996 0 -2.5
    vertex 63.7 0 -5
  endloop
endfacet
facet normal 0 1 0
  outer loop
    vertex 9.100000000000094 0 -5
    vertex 4.550000000000026 0 -2.5
    vertex 9.100000000000007 0 0
  endloop
endfacet
facet normal 0 1 0
  outer loop
    vertex 81.89999999999991 0 0
    vertex 86.44999999999997 0 -2.5
    vertex 81.89999999999999 0 -5
  endloop
endfacet
facet normal 0 1 0
  outer loop
    vertex 9.100000000000007 0 0
    vertex 13.65000000000005 0 -2.5
    vertex 9.100000000000094 0 -5
  endloop
endfacet
facet normal 0 1 0
  outer loop
    vertex 18.20000000000001 0 0
    vertex 22.75000000000004 0 -2.5
    vertex 18.20000000000009 0 -5
  endloop
endfacet
facet normal 0 1 0
  outer loop
    vertex 54.60000000000002 0 -5
    vertex 50.04999999999999 0 -2.5
    vertex 54.59999999999995 0 0
  endloop
endfacet
facet normal 0 1 0
  outer loop
    vertex 63.7 0 -5
    vertex 59.14999999999997 0 -2.5
    vertex 63.69999999999993 0 0
  endloop
endfacet
facet normal 0 1 0
  outer loop
    vertex 27.3 0 0
    vertex 31.85000000000003 0 -2.5
    vertex 27.30000000000007 0 -5
  endloop
endfacet
facet normal 0 1 0
  outer loop
    vertex 72.79999999999998 0 -5
    vertex 68.24999999999996 0 -2.5
    vertex 72.79999999999991 0 0
  endloop
endfacet
facet normal 0 1 0
  outer loop
    vertex 45.50000000000004 0 -5
    vertex 40.95000000000001 0 -2.5
    vertex 45.49999999999996 0 0
  endloop
endfacet
facet normal 0 1 0
  outer loop
    vertex 81.89999999999999 0 -5
    vertex 77.34999999999994 0 -2.5
    vertex 81.89999999999991 0 0
  endloop
endfacet
facet normal 0 1 0
  outer loop
    vertex 9.100000000000007 0 0
    vertex 4.550000000000026 0 -2.5
    vertex 0 0 0
  endloop
endfacet
facet normal 0 1 0
  outer loop
    vertex 91 0 0
    vertex 86.44999999999997 0 -2.5
    vertex 81.89999999999991 0 0
  endloop
endfacet
facet normal 0 1 0
  outer loop
    vertex 81.89999999999999 0 -5
    vertex 86.44999999999997 0 -2.5
    vertex 91 0 -5
  endloop
endfacet
facet normal 0 1 0
  outer loop
    vertex 0 0 -5
    vertex 4.550000000000026 0 -2.5
    vertex 9.100000000000094 0 -5
  endloop
endfacet
facet normal 0 1 0
  outer loop
    vertex 18.20000000000001 0 0
    vertex 13.65000000000005 0 -2.5
    vertex 9.100000000000007 0 0
  endloop
endfacet
facet normal 0 1 0
  outer loop
    vertex 27.3 0 0
    vertex 22.75000000000004 0 -2.5
    vertex 18.20000000000001 0 0
  endloop
endfacet
facet normal 0 1 0
  outer loop
    vertex 36.39999999999998 0 0
    vertex 31.85000000000003 0 -2.5
    vertex 27.3 0 0
  endloop
endfacet
facet normal 0 1 0
  outer loop
    vertex 45.49999999999996 0 0
    vertex 40.95000000000001 0 -2.5
    vertex 36.39999999999998 0 0
  endloop
endfacet
facet normal 0 1 0
  outer loop
    vertex 54.59999999999995 0 0
    vertex 50.04999999999999 0 -2.5
    vertex 45.49999999999996 0 0
  endloop
endfacet
facet normal 0 1 0
  outer loop
    vertex 63.69999999999993 0 0
    vertex 59.14999999999997 0 -2.5
    vertex 54.59999999999995 0 0
  endloop
endfacet
facet normal 0 1 0
  outer loop
    vertex 72.79999999999991 0 0
    vertex 68.24999999999996 0 -2.5
    vertex 63.69999999999993 0 0
  endloop
endfacet
facet normal 0 1 0
  outer loop
    vertex 81.89999999999991 0 0
    vertex 77.34999999999994 0 -2.5
    vertex 72.79999999999991 0 0
  endloop
endfacet
facet normal 0 1 0
  outer loop
    vertex 72.79999999999998 0 -5
    vertex 77.34999999999994 0 -2.5
    vertex 81.89999999999999 0 -5
  endloop
endfacet
facet normal 0 1 0
  outer loop
    vertex 63.7 0 -5
    vertex 68.24999999999996 0 -2.5
    vertex 72.79999999999998 0 -5
  endloop
endfacet
facet normal 0 1 0
  outer loop
    vertex 54.60000000000002 0 -5
    vertex 59.14999999999997 0 -2.5
    vertex 63.7 0 -5
  endloop
endfacet
facet normal 0 1 0
  outer loop
    vertex 45.50000000000004 0 -5
    vertex 50.04999999999999 0 -2.5
    vertex 54.60000000000002 0 -5
  endloop
endfacet
facet normal 0 1 0
  outer loop
    vertex 36.40000000000005 0 -5
    vertex 40.95000000000001 0 -2.5
    vertex 45.50000000000004 0 -5
  endloop
endfacet
facet normal 0 1 0
  outer loop
    vertex 27.30000000000007 0 -5
    vertex 31.85000000000003 0 -2.5
    vertex 36.40000000000005 0 -5
  endloop
endfacet
facet normal 0 1 0
  outer loop
    vertex 18.20000000000009 0 -5
    vertex 22.75000000000004 0 -2.5
    vertex 27.30000000000007 0 -5
  endloop
endfacet
facet normal 0 1 0
  outer loop
    vertex 9.100000000000094 0 -5
    vertex 13.65000000000005 0 -2.5
    vertex 18.20000000000009 0 -5
  endloop
endfacet
facet normal 0 -1 -0
  outer loop
    vertex 9.100000000000094 22 0
    vertex 4.550000000000047 22 -2.5
    vertex 9.100000000000094 22 -5
  endloop
endfacet
facet normal 0 -1 0
  outer loop
    vertex 72.79999999999998 22 -5
    vertex 77.34999999999999 22 -2.5
    vertex 72.79999999999998 22 0
  endloop
endfacet
facet normal 0 -1 0
  outer loop
    vertex 81.89999999999999 22 -5
    vertex 86.45 22 -2.5
    vertex 81.89999999999999 22 0
  endloop
endfacet
facet normal 0 -1 -0
  outer loop
    vertex 18.20000000000009 22 0
    vertex 13.65000000000009 22 -2.5
    vertex 18.20000000000009 22 -5
  endloop
endfacet
facet normal 0 -1 -0
  outer loop
    vertex 91 22 0
    vertex 86.45 22 -2.5
    vertex 91 22 -5
  endloop
endfacet
facet normal 0 -1 -0
  outer loop
    vertex 72.79999999999998 22 0
    vertex 68.24999999999999 22 -2.5
    vertex 72.79999999999998 22 -5
  endloop
endfacet
facet normal 0 -1 -0
  outer loop
    vertex 63.7 22 0
    vertex 59.15000000000001 22 -2.5
    vertex 63.7 22 -5
  endloop
endfacet
facet normal 0 -1 0
  outer loop
    vertex 54.60000000000002 22 -5
    vertex 59.15000000000001 22 -2.5
    vertex 54.60000000000002 22 0
  endloop
endfacet
facet normal 0 -1 -0
  outer loop
    vertex 54.60000000000002 22 0
    vertex 50.05000000000003 22 -2.5
    vertex 54.60000000000002 22 -5
  endloop
endfacet
facet normal 0 -1 -0
  outer loop
    vertex 45.50000000000004 22 0
    vertex 40.95000000000005 22 -2.5
    vertex 45.50000000000004 22 -5
  endloop
endfacet
facet normal 0 -1 0
  outer loop
    vertex 45.50000000000004 22 -5
    vertex 50.05000000000003 22 -2.5
    vertex 45.50000000000004 22 0
  endloop
endfacet
facet normal 0 -1 0
  outer loop
    vertex 36.40000000000005 22 -5
    vertex 40.95000000000005 22 -2.5
    vertex 36.40000000000005 22 0
  endloop
endfacet
facet normal 0 -1 -0
  outer loop
    vertex 36.40000000000005 22 0
    vertex 31.85000000000006 22 -2.5
    vertex 36.40000000000005 22 -5
  endloop
endfacet
facet normal 0 -1 0
  outer loop
    vertex 18.20000000000009 22 -5
    vertex 22.75000000000008 22 -2.5
    vertex 18.20000000000009 22 0
  endloop
endfacet
facet normal 0 -1 0
  outer loop
    vertex 9.100000000000094 22 -5
    vertex 13.65000000000009 22 -2.5
    vertex 9.100000000000094 22 0
  endloop
endfacet
facet normal 0 -1 0
  outer loop
    vertex 27.30000000000007 22 -5
    vertex 31.85000000000006 22 -2.5
    vertex 27.30000000000007 22 0
  endloop
endfacet
facet normal 0 -1 -0
  outer loop
    vertex 27.30000000000007 22 0
    vertex 22.75000000000008 22 -2.5
    vertex 27.30000000000007 22 -5
  endloop
endfacet
facet normal 0 -1 0
  outer loop
    vertex 63.7 22 -5
    vertex 68.24999999999999 22 -2.5
    vertex 63.7 22 0
  endloop
endfacet
facet normal 0 -1 -0
  outer loop
    vertex 81.89999999999999 22 0
    vertex 77.34999999999999 22 -2.5
    vertex 81.89999999999999 22 -5
  endloop
endfacet
facet normal 0 -1 0
  outer loop
    vertex 0 22 -5
    vertex 4.550000000000047 22 -2.5
    vertex 0 22 0
  endloop
endfacet
facet normal 0 -1 0
  outer loop
    vertex 81.89999999999999 22 0
    vertex 86.45 22 -2.5
    vertex 91 22 0
  endloop
endfacet
facet normal 0 -1 0
  outer loop
    vertex 0 22 0
    vertex 4.550000000000047 22 -2.5
    vertex 9.100000000000094 22 0
  endloop
endfacet
facet normal 0 -1 0
  outer loop
    vertex 91 22 -5
    vertex 86.45 22 -2.5
    vertex 81.89999999999999 22 -5
  endloop
endfacet
facet normal 0 -1 0
  outer loop
    vertex 9.100000000000094 22 -5
    vertex 4.550000000000047 22 -2.5
    vertex 0 22 -5
  endloop
endfacet
facet normal 0 -1 0
  outer loop
    vertex 72.79999999999998 22 0
    vertex 77.34999999999999 22 -2.5
    vertex 81.89999999999999 22 0
  endloop
endfacet
facet normal 0 -1 0
  outer loop
    vertex 63.7 22 0
    vertex 68.24999999999999 22 -2.5
    vertex 72.79999999999998 22 0
  endloop
endfacet
facet normal 0 -1 0
  outer loop
    vertex 54.60000000000002 22 0
    vertex 59.15000000000001 22 -2.5
    vertex 63.7 22 0
  endloop
endfacet
facet normal 0 -1 0
  outer loop
    vertex 45.50000000000004 22 0
    vertex 50.05000000000003 22 -2.5
    vertex 54.60000000000002 22 0
  endloop
endfacet
facet normal 0 -1 0
  outer loop
    vertex 36.40000000000005 22 0
    vertex 40.95000000000005 22 -2.5
    vertex 45.50000000000004 22 0
  endloop
endfacet
facet normal 0 -1 0
  outer loop
    vertex 27.30000000000007 22 0
    vertex 31.85000000000006 22 -2.5
    vertex 36.40000000000005 22 0
  endloop
endfacet
facet normal 0 -1 0
  outer loop
    vertex 18.20000000000009 22 0
    vertex 22.75000000000008 22 -2.5
    vertex 27.30000000000007 22 0
  endloop
endfacet
facet normal 0 -1 0
  outer loop
    vertex 9.100000000000094 22 0
    vertex 13.65000000000009 22 -2.5
    vertex 18.20000000000009 22 0
  endloop
endfacet
facet normal 0 -1 0
  outer loop
    vertex 81.89999999999999 22 -5
    vertex 77.34999999999999 22 -2.5
    vertex 72.79999999999998 22 -5
  endloop
endfacet
facet normal 0 -1 0
  outer loop
    vertex 72.79999999999998 22 -5
    vertex 68.24999999999999 22 -2.5
    vertex 63.7 22 -5
  endloop
endfacet
facet normal 0 -1 0
  outer loop
    vertex 63.7 22 -5
    vertex 59.15000000000001 22 -2.5
    vertex 54.60000000000002 22 -5
  endloop
endfacet
facet normal 0 -1 0
  outer loop
    vertex 54.60000000000002 22 -5
    vertex 50.05000000000003 22 -2.5
    vertex 45.50000000000004 22 -5
  endloop
endfacet
facet normal 0 -1 0
  outer loop
    vertex 45.50000000000004 22 -5
    vertex 40.95000000000005 22 -2.5
    vertex 36.40000000000005 22 -5
  endloop
endfacet
facet normal 0 -1 0
  outer loop
    vertex 36.40000000000005 22 -5
    vertex 31.85000000000006 22 -2.5
    vertex 27.30000000000007 22 -5
  endloop
endfacet
facet normal 0 -1 0
  outer loop
    vertex 27.30000000000007 22 -5
    vertex 22.75000000000008 22 -2.5
    vertex 18.20000000000009 22 -5
  endloop
endfacet
facet normal 0 -1 0
  outer loop
    vertex 18.20000000000009 22 -5
    vertex 13.65000000000009 22 -2.5
    vertex 9.100000000000094 22 -5
  endloop
endfacet
facet normal 0 0 -1
  outer loop
    vertex 12.48829478441378 16.12300844689111 -5
    vertex 21.38546238533098 14.85474864181589 -5
    vertex 14.11713869267274 7.60533200054679 -5
  endloop
endfacet
facet normal 0 0 -1
  outer loop
    vertex 78.51170521558629 5.876991553108881 -5
    vertex 69.61453761466909 7.145251358184107 -5
    vertex 76.88286130732733 14.3946679994532 -5
  endloop
endfacet
facet normal 0 0 -1
  outer loop
    vertex 14.11713869267274 7.60533200054679 -5
    vertex 21.38546238533098 14.85474864181589 -5
    vertex 24.35734083489913 7.280982577895818 -5
  endloop
endfacet
facet normal -0 0 -1
  outer loop
    vertex 76.88286130732733 14.3946679994532 -5
    vertex 69.61453761466909 7.145251358184107 -5
    vertex 66.64265916510094 14.71901742210418 -5
  endloop
endfacet
facet normal -0 0 -1
  outer loop
    vertex 14.11713869267274 7.60533200054679 -5
    vertex 5.88595374129649 5.212900115671535 -5
    vertex 6.212630013809616 11.12583524447758 -5
  endloop
endfacet
facet normal 0 0 -1
  outer loop
    vertex 76.88286130732733 14.3946679994532 -5
    vertex 85.11404625870355 16.78709988432845 -5
    vertex 84.78736998619041 10.8741647555224 -5
  endloop
endfacet
facet normal 0 -0 -1
  outer loop
    vertex 50.05000000000003 14.11916882556163 -5
    vertex 50.05000000000003 5.976166234887675 -5
    vertex 40.95000000000004 7.880831174438374 -5
  endloop
endfacet
facet normal 0 0 -1
  outer loop
    vertex 24.35734083489913 7.280982577895818 -5
    vertex 21.38546238533098 14.85474864181589 -5
    vertex 31.85000000000006 14.11916882556163 -5
  endloop
endfacet
facet normal 0 -0 -1
  outer loop
    vertex 31.85000000000006 14.11916882556163 -5
    vertex 32.17146816697987 5.856196515579163 -5
    vertex 24.35734083489913 7.280982577895818 -5
  endloop
endfacet
facet normal 0 0 -1
  outer loop
    vertex 59.15000000000001 7.880831174438374 -5
    vertex 58.82853183302019 16.14380348442084 -5
    vertex 66.64265916510094 14.71901742210418 -5
  endloop
endfacet
facet normal 0 0 -1
  outer loop
    vertex 50.05000000000003 14.11916882556163 -5
    vertex 58.82853183302019 16.14380348442084 -5
    vertex 59.15000000000001 7.880831174438374 -5
  endloop
endfacet
facet normal -0 0 -1
  outer loop
    vertex 59.15000000000001 7.880831174438374 -5
    vertex 50.05000000000003 5.976166234887675 -5
    vertex 50.05000000000003 14.11916882556163 -5
  endloop
endfacet
facet normal -0 0 -1
  outer loop
    vertex 40.95000000000004 7.880831174438374 -5
    vertex 32.17146816697987 5.856196515579163 -5
    vertex 31.85000000000006 14.11916882556163 -5
  endloop
endfacet
facet normal 0 -0 -1
  outer loop
    vertex 66.64265916510094 14.71901742210418 -5
    vertex 69.61453761466909 7.145251358184107 -5
    vertex 59.15000000000001 7.880831174438374 -5
  endloop
endfacet
facet normal 0 0 -1
  outer loop
    vertex 40.95000000000004 7.880831174438374 -5
    vertex 40.95000000000005 16.02383376511233 -5
    vertex 50.05000000000003 14.11916882556163 -5
  endloop
endfacet
facet normal 0 0 -1
  outer loop
    vertex 31.85000000000006 14.11916882556163 -5
    vertex 40.95000000000005 16.02383376511233 -5
    vertex 40.95000000000004 7.880831174438374 -5
  endloop
endfacet
facet normal 0 0 -1
  outer loop
    vertex 9.100000000000094 0 -5
    vertex 5.88595374129649 5.212900115671535 -5
    vertex 14.11713869267274 7.60533200054679 -5
  endloop
endfacet
facet normal 0 -0 -1
  outer loop
    vertex 81.89999999999999 22 -5
    vertex 85.11404625870355 16.78709988432845 -5
    vertex 76.88286130732733 14.3946679994532 -5
  endloop
endfacet
facet normal 0 0 -1
  outer loop
    vertex 6.212630013809616 11.12583524447758 -5
    vertex 5.560184959644694 17.18310207160707 -5
    vertex 12.48829478441378 16.12300844689111 -5
  endloop
endfacet
facet normal 0 -0 -1
  outer loop
    vertex 84.78736998619041 10.8741647555224 -5
    vertex 85.43981504035534 4.816897928392917 -5
    vertex 78.51170521558629 5.876991553108881 -5
  endloop
endfacet
facet normal 0 0 -1
  outer loop
    vertex 36.40000000000005 0 -5
    vertex 40.95000000000004 7.880831174438374 -5
    vertex 45.50000000000004 0 -5
  endloop
endfacet
facet normal -0 0 -1
  outer loop
    vertex 72.79999999999998 22 -5
    vertex 66.64265916510094 14.71901742210418 -5
    vertex 63.7 22 -5
  endloop
endfacet
facet normal 0 0 -1
  outer loop
    vertex 54.60000000000002 0 -5
    vertex 59.15000000000001 7.880831174438374 -5
    vertex 63.7 0 -5
  endloop
endfacet
facet normal -0 0 -1
  outer loop
    vertex 54.60000000000002 22 -5
    vertex 50.05000000000003 14.11916882556163 -5
    vertex 45.50000000000004 22 -5
  endloop
endfacet
facet normal 0 0 -1
  outer loop
    vertex 18.20000000000009 0 -5
    vertex 24.35734083489913 7.280982577895818 -5
    vertex 27.30000000000007 0 -5
  endloop
endfacet
facet normal -0 0 -1
  outer loop
    vertex 36.40000000000005 22 -5
    vertex 31.85000000000006 14.11916882556163 -5
    vertex 27.30000000000007 22 -5
  endloop
endfacet
facet normal 0 0 -1
  outer loop
    vertex 9.100000000000094 0 -5
    vertex 14.11713869267274 7.60533200054679 -5
    vertex 18.20000000000009 0 -5
  endloop
endfacet
facet normal -0 0 -1
  outer loop
    vertex 81.89999999999999 22 -5
    vertex 76.88286130732733 14.3946679994532 -5
    vertex 72.79999999999998 22 -5
  endloop
endfacet
facet normal 0 0 -1
  outer loop
    vertex 0 0 -5
    vertex 5.88595374129649 5.212900115671535 -5
    vertex 9.100000000000094 0 -5
  endloop
endfacet
facet normal -0 0 -1
  outer loop
    vertex 9.100000000000094 22 -5
    vertex 5.560184959644694 17.18310207160707 -5
    vertex 0 22 -5
  endloop
endfacet
facet normal 0 0 -1
  outer loop
    vertex 81.89999999999999 0 -5
    vertex 85.43981504035534 4.816897928392917 -5
    vertex 91 0 -5
  endloop
endfacet
facet normal -0 0 -1
  outer loop
    vertex 91 22 -5
    vertex 85.11404625870355 16.78709988432845 -5
    vertex 81.89999999999999 22 -5
  endloop
endfacet
facet normal 0 0 -1
  outer loop
    vertex 18.20000000000009 0 -5
    vertex 14.11713869267274 7.60533200054679 -5
    vertex 24.35734083489913 7.280982577895818 -5
  endloop
endfacet
facet normal 0 -0 -1
  outer loop
    vertex 72.79999999999998 22 -5
    vertex 76.88286130732733 14.3946679994532 -5
    vertex 66.64265916510094 14.71901742210418 -5
  endloop
endfacet
facet normal 0 0 -1
  outer loop
    vertex 31.85000000000006 14.11916882556163 -5
    vertex 21.38546238533098 14.85474864181589 -5
    vertex 27.30000000000007 22 -5
  endloop
endfacet
facet normal 0 0 -1
  outer loop
    vertex 40.95000000000004 7.880831174438374 -5
    vertex 50.05000000000003 5.976166234887675 -5
    vertex 45.50000000000004 0 -5
  endloop
endfacet
facet normal 0 0 -1
  outer loop
    vertex 24.35734083489913 7.280982577895818 -5
    vertex 32.17146816697987 5.856196515579163 -5
    vertex 27.30000000000007 0 -5
  endloop
endfacet
facet normal 0 0 -1
  outer loop
    vertex 54.60000000000002 0 -5
    vertex 50.05000000000003 5.976166234887675 -5
    vertex 59.15000000000001 7.880831174438374 -5
  endloop
endfacet
facet normal 0 0 -1
  outer loop
    vertex 36.40000000000005 0 -5
    vertex 32.17146816697987 5.856196515579163 -5
    vertex 40.95000000000004 7.880831174438374 -5
  endloop
endfacet
facet normal 0 -0 -1
  outer loop
    vertex 54.60000000000002 22 -5
    vertex 58.82853183302019 16.14380348442084 -5
    vertex 50.05000000000003 14.11916882556163 -5
  endloop
endfacet
facet normal 0 -0 -1
  outer loop
    vertex 36.40000000000005 22 -5
    vertex 40.95000000000005 16.02383376511233 -5
    vertex 31.85000000000006 14.11916882556163 -5
  endloop
endfacet
facet normal 0 0 -1
  outer loop
    vertex 59.15000000000001 7.880831174438374 -5
    vertex 69.61453761466909 7.145251358184107 -5
    vertex 63.7 0 -5
  endloop
endfacet
facet normal 0 0 -1
  outer loop
    vertex 50.05000000000003 14.11916882556163 -5
    vertex 40.95000000000005 16.02383376511233 -5
    vertex 45.50000000000004 22 -5
  endloop
endfacet
facet normal 0 0 -1
  outer loop
    vertex 66.64265916510094 14.71901742210418 -5
    vertex 58.82853183302019 16.14380348442084 -5
    vertex 63.7 22 -5
  endloop
endfacet
facet normal 0 0 -1
  outer loop
    vertex 6.212630013809616 11.12583524447758 -5
    vertex 12.48829478441378 16.12300844689111 -5
    vertex 14.11713869267274 7.60533200054679 -5
  endloop
endfacet
facet normal -0 0 -1
  outer loop
    vertex 84.78736998619041 10.8741647555224 -5
    vertex 78.51170521558629 5.876991553108881 -5
    vertex 76.88286130732733 14.3946679994532 -5
  endloop
endfacet
facet normal 0 0 -1
  outer loop
    vertex 0 14.66666666666665 -5
    vertex 6.212630013809616 11.12583524447758 -5
    vertex 0 7.333333333333311 -5
  endloop
endfacet
facet normal 0 0 -1
  outer loop
    vertex 91 7.333333333333311 -5
    vertex 84.78736998619041 10.8741647555224 -5
    vertex 91 14.66666666666665 -5
  endloop
endfacet
facet normal 0 0 -1
  outer loop
    vertex 12.48829478441378 16.12300844689111 -5
    vertex 5.560184959644694 17.18310207160707 -5
    vertex 9.100000000000094 22 -5
  endloop
endfacet
facet normal 0 0 -1
  outer loop
    vertex 78.51170521558629 5.876991553108881 -5
    vertex 85.43981504035534 4.816897928392917 -5
    vertex 81.89999999999999 0 -5
  endloop
endfacet
facet normal 0 0 -1
  outer loop
    vertex 72.79999999999998 0 -5
    vertex 78.51170521558629 5.876991553108881 -5
    vertex 81.89999999999999 0 -5
  endloop
endfacet
facet normal -0 0 -1
  outer loop
    vertex 18.20000000000009 22 -5
    vertex 12.48829478441378 16.12300844689111 -5
    vertex 9.100000000000094 22 -5
  endloop
endfacet
facet normal 0 -0 -1
  outer loop
    vertex 18.20000000000009 22 -5
    vertex 21.38546238533098 14.85474864181589 -5
    vertex 12.48829478441378 16.12300844689111 -5
  endloop
endfacet
facet normal 0 0 -1
  outer loop
    vertex 72.79999999999998 0 -5
    vertex 69.61453761466909 7.145251358184107 -5
    vertex 78.51170521558629 5.876991553108881 -5
  endloop
endfacet
facet normal 0 0 -1
  outer loop
    vertex 45.50000000000004 0 -5
    vertex 50.05000000000003 5.976166234887675 -5
    vertex 54.60000000000002 0 -5
  endloop
endfacet
facet normal -0 0 -1
  outer loop
    vertex 63.7 22 -5
    vertex 58.82853183302019 16.14380348442084 -5
    vertex 54.60000000000002 22 -5
  endloop
endfacet
facet normal -0 0 -1
  outer loop
    vertex 27.30000000000007 22 -5
    vertex 21.38546238533098 14.85474864181589 -5
    vertex 18.20000000000009 22 -5
  endloop
endfacet
facet normal -0 0 -1
  outer loop
    vertex 45.50000000000004 22 -5
    vertex 40.95000000000005 16.02383376511233 -5
    vertex 36.40000000000005 22 -5
  endloop
endfacet
facet normal 0 0 -1
  outer loop
    vertex 63.7 0 -5
    vertex 69.61453761466909 7.145251358184107 -5
    vertex 72.79999999999998 0 -5
  endloop
endfacet
facet normal 0 0 -1
  outer loop
    vertex 27.30000000000007 0 -5
    vertex 32.17146816697987 5.856196515579163 -5
    vertex 36.40000000000005 0 -5
  endloop
endfacet
facet normal 0 0 -1
  outer loop
    vertex 6.212630013809616 11.12583524447758 -5
    vertex 5.88595374129649 5.212900115671535 -5
    vertex 0 7.333333333333311 -5
  endloop
endfacet
facet normal 0 0 -1
  outer loop
    vertex 0 14.66666666666665 -5
    vertex 5.560184959644694 17.18310207160707 -5
    vertex 6.212630013809616 11.12583524447758 -5
  endloop
endfacet
facet normal 0 0 -1
  outer loop
    vertex 84.78736998619041 10.8741647555224 -5
    vertex 85.11404625870355 16.78709988432845 -5
    vertex 91 14.66666666666665 -5
  endloop
endfacet
facet normal -0 0 -1
  outer loop
    vertex 91 7.333333333333311 -5
    vertex 85.43981504035534 4.816897928392917 -5
    vertex 84.78736998619041 10.8741647555224 -5
  endloop
endfacet
facet normal 0 0 -1
  outer loop
    vertex 0 22 -5
    vertex 5.560184959644694 17.18310207160707 -5
    vertex 0 14.66666666666665 -5
  endloop
endfacet
facet normal 0 0 -1
  outer loop
    vertex 0 7.333333333333311 -5
    vertex 5.88595374129649 5.212900115671535 -5
    vertex 0 0 -5
  endloop
endfacet
facet normal 0 0 -1
  outer loop
    vertex 91 14.66666666666665 -5
    vertex 85.11404625870355 16.78709988432845 -5
    vertex 91 22 -5
  endloop
endfacet
facet normal 0 0 -1
  outer loop
    vertex 91 0 -5
    vertex 85.43981504035534 4.816897928392917 -5
    vertex 91 7.333333333333311 -5
  endloop
endfacet
facet normal 1 0 0
  outer loop
    vertex 0 7.333333333333311 -5
    vertex 0 11 -2.5
    vertex 0 7.333333333333352 0
  endloop
endfacet
facet normal 1 0 0
  outer loop
    vertex 0 22 0
    vertex 0 18.33333333333334 -2.5
    vertex 0 22 -5
  endloop
endfacet
facet normal 1 0 0
  outer loop
    vertex 0 0 -5
    vertex 0 3.666666666666665 -2.5
    vertex 0 0 0
  endloop
endfacet
facet normal 1 0 0
  outer loop
    vertex 0 14.66666666666665 -5
    vertex 0 18.33333333333334 -2.5
    vertex 0 14.66666666666669 0
  endloop
endfacet
facet normal 1 0 0
  outer loop
    vertex 0 7.333333333333352 0
    vertex 0 3.666666666666665 -2.5
    vertex 0 7.333333333333311 -5
  endloop
endfacet
facet normal 1 0 0
  outer loop
    vertex 0 14.66666666666669 0
    vertex 0 11 -2.5
    vertex 0 14.66666666666665 -5
  endloop
endfacet
facet normal 1 -0 0
  outer loop
    vertex 0 0 0
    vertex 0 3.666666666666665 -2.5
    vertex 0 7.333333333333352 0
  endloop
endfacet
facet normal 1 -0 0
  outer loop
    vertex 0 14.66666666666669 0
    vertex 0 18.33333333333334 -2.5
    vertex 0 22 0
  endloop
endfacet
facet normal 1 0 0
  outer loop
    vertex 0 7.333333333333311 -5
    vertex 0 3.666666666666665 -2.5
    vertex 0 0 -5
  endloop
endfacet
facet normal 1 0 0
  outer loop
    vertex 0 22 -5
    vertex 0 18.33333333333334 -2.5
    vertex 0 14.66666666666665 -5
  endloop
endfacet
facet normal 1 -0 0
  outer loop
    vertex 0 7.333333333333352 0
    vertex 0 11 -2.5
    vertex 0 14.66666666666669 0
  endloop
endfacet
facet normal 1 0 0
  outer loop
    vertex 0 14.66666666666665 -5
    vertex 0 11 -2.5
    vertex 0 7.333333333333311 -5
  endloop
endfacet
facet normal -1 -0 0
  outer loop
    vertex -20 15.72781423800676 6.500000000000018
    vertex -20 6.353932550635085 6.499999999999998
    vertex -20 10.99999999999999 12.16088553828703
  endloop
endfacet
facet normal -1 0 0
  outer loop
    vertex -20 10.99999999999999 0.8391144617129775
    vertex -20 6.353932550635085 6.499999999999998
    vertex -20 15.72781423800676 6.500000000000018
  endloop
endfacet
facet normal -1 -0 0
  outer loop
    vertex -20 14.66666666666665 18
    vertex -20 10.99999999999999 12.16088553828703
    vertex -20 7.333333333333311 18
  endloop
endfacet
facet normal -1 0 0
  outer loop
    vertex -20 7.333333333333311 -5
    vertex -20 10.99999999999999 0.8391144617129775
    vertex -20 14.66666666666665 -5
  endloop
endfacet
facet normal -1 0 0
  outer loop
    vertex -20 22 2.666666666666691
    vertex -20 15.72781423800676 6.500000000000018
    vertex -20 22 10.33333333333335
  endloop
endfacet
facet normal -1 0 0
  outer loop
    vertex -20 0 10.33333333333331
    vertex -20 6.353932550635085 6.499999999999998
    vertex -20 0 2.666666666666648
  endloop
endfacet
facet normal -1 0 0
  outer loop
    vertex -20 0 18
    vertex -20 4.937453176793676 12.99884377432407
    vertex -20 0 10.33333333333331
  endloop
endfacet
facet normal -1 0 0
  outer loop
    vertex -20 22 10.33333333333335
    vertex -20 17.07889618093468 12.99884377432408
    vertex -20 22 18
  endloop
endfacet
facet normal -1 0 0
  outer loop
    vertex -20 22 -5
    vertex -20 17.07889618093468 0.001156225675937428
    vertex -20 22 2.666666666666691
  endloop
endfacet
facet normal -1 0 0
  outer loop
    vertex -20 0 2.666666666666648
    vertex -20 4.937453176793677 0.001156225675924105
    vertex -20 0 -5
  endloop
endfacet
facet normal -1 -0 0
  outer loop
    vertex -20 22 18
    vertex -20 17.07889618093468 12.99884377432408
    vertex -20 14.66666666666665 18
  endloop
endfacet
facet normal -1 -0 0
  outer loop
    vertex -20 7.333333333333311 18
    vertex -20 4.937453176793676 12.99884377432407
    vertex -20 0 18
  endloop
endfacet
facet normal -1 0 0
  outer loop
    vertex -20 14.66666666666665 -5
    vertex -20 17.07889618093468 0.001156225675937428
    vertex -20 22 -5
  endloop
endfacet
facet normal -1 0 0
  outer loop
    vertex -20 0 -5
    vertex -20 4.937453176793677 0.001156225675924105
    vertex -20 7.333333333333311 -5
  endloop
endfacet
facet normal -1 0 0
  outer loop
    vertex -20 10.99999999999999 12.16088553828703
    vertex -20 4.937453176793676 12.99884377432407
    vertex -20 7.333333333333311 18
  endloop
endfacet
facet normal -1 0 -0
  outer loop
    vertex -20 14.66666666666665 18
    vertex -20 17.07889618093468 12.99884377432408
    vertex -20 10.99999999999999 12.16088553828703
  endloop
endfacet
facet normal -1 0 0
  outer loop
    vertex -20 7.333333333333311 -5
    vertex -20 4.937453176793677 0.001156225675924105
    vertex -20 10.99999999999999 0.8391144617129775
  endloop
endfacet
facet normal -1 0 0
  outer loop
    vertex -20 10.99999999999999 0.8391144617129775
    vertex -20 17.07889618093468 0.001156225675937428
    vertex -20 14.66666666666665 -5
  endloop
endfacet
facet normal -1 0 0
  outer loop
    vertex -20 10.99999999999999 12.16088553828703
    vertex -20 17.07889618093468 12.99884377432408
    vertex -20 15.72781423800676 6.500000000000018
  endloop
endfacet
facet normal -1 0 0
  outer loop
    vertex -20 6.353932550635085 6.499999999999998
    vertex -20 4.937453176793676 12.99884377432407
    vertex -20 10.99999999999999 12.16088553828703
  endloop
endfacet
facet normal -1 0 -0
  outer loop
    vertex -20 15.72781423800676 6.500000000000018
    vertex -20 17.07889618093468 0.001156225675937428
    vertex -20 10.99999999999999 0.8391144617129775
  endloop
endfacet
facet normal -1 0 0
  outer loop
    vertex -20 15.72781423800676 6.500000000000018
    vertex -20 17.07889618093468 12.99884377432408
    vertex -20 22 10.33333333333335
  endloop
endfacet
facet normal -1 -0 0
  outer loop
    vertex -20 22 2.666666666666691
    vertex -20 17.07889618093468 0.001156225675937428
    vertex -20 15.72781423800676 6.500000000000018
  endloop
endfacet
facet normal -1 -0 0
  outer loop
    vertex -20 10.99999999999999 0.8391144617129775
    vertex -20 4.937453176793677 0.001156225675924105
    vertex -20 6.353932550635085 6.499999999999998
  endloop
endfacet
facet normal -1 0 0
  outer loop
    vertex -20 0 10.33333333333331
    vertex -20 4.937453176793676 12.99884377432407
    vertex -20 6.353932550635085 6.499999999999998
  endloop
endfacet
facet normal -1 0 0
  outer loop
    vertex -20 6.353932550635085 6.499999999999998
    vertex -20 4.937453176793677 0.001156225675924105
    vertex -20 0 2.666666666666648
  endloop
endfacet
facet normal 0 -1 0
  outer loop
    vertex 0 0 -5
    vertex -5.626676366212022 0 -1.246647267575956
    vertex -10 0 -5
  endloop
endfacet
facet normal 0 -1 -0
  outer loop
    vertex 0 0 9.000000000000028
    vertex -6.629655924358806 0 4.370361902266366
    vertex 0 0 0
  endloop
endfacet
facet normal 0 -1 -0
  outer loop
    vertex -6.629655924358806 0 4.370361902266366
    vertex -13.68677047099904 0 0.1503360376330356
    vertex -5.626676366212022 0 -1.246647267575956
  endloop
endfacet
facet normal 0 -1 -0
  outer loop
    vertex 0 0 0
    vertex -5.626676366212022 0 -1.246647267575956
    vertex 0 0 -5
  endloop
endfacet
facet normal 0 -1 0
  outer loop
    vertex -6.629655924358806 0 4.370361902266366
    vertex -5.626676366212022 0 -1.246647267575956
    vertex 0 0 0
  endloop
endfacet
facet normal 0 -1 -0
  outer loop
    vertex -13.41963325068341 0 6.767681327867691
    vertex -13.68677047099904 0 0.1503360376330356
    vertex -6.629655924358806 0 4.370361902266366
  endloop
endfacet
facet normal 0 -1 0
  outer loop
    vertex -10 0 -5
    vertex -13.68677047099904 0 0.1503360376330356
    vertex -20 0 -5
  endloop
endfacet
facet normal 0 -1 0
  outer loop
    vertex -20 0 18
    vertex -14.06476510340918 0 12.94679506241776
    vertex -10 0 18
  endloop
endfacet
facet normal 0 -1 0
  outer loop
    vertex -20 0 2.666666666666648
    vertex -13.41963325068341 0 6.767681327867691
    vertex -20 0 10.33333333333331
  endloop
endfacet
facet normal 0 -1 0
  outer loop
    vertex -6.629655924358806 0 4.370361902266366
    vertex -6.66686082584821 0 11.64793241572422
    vertex -13.41963325068341 0 6.767681327867691
  endloop
endfacet
facet normal 0 -1 0
  outer loop
    vertex -10 0 18
    vertex -6.66686082584821 0 11.64793241572422
    vertex 0 0 18
  endloop
endfacet
facet normal 0 -1 -0
  outer loop
    vertex 0 0 18
    vertex -6.66686082584821 0 11.64793241572422
    vertex 0 0 9.000000000000028
  endloop
endfacet
facet normal 0 -1 0
  outer loop
    vertex -20 0 10.33333333333331
    vertex -14.06476510340918 0 12.94679506241776
    vertex -20 0 18
  endloop
endfacet
facet normal 0 -1 0
  outer loop
    vertex -20 0 -5
    vertex -13.68677047099904 0 0.1503360376330356
    vertex -20 0 2.666666666666648
  endloop
endfacet
facet normal -0 -1 0
  outer loop
    vertex -6.66686082584821 0 11.64793241572422
    vertex -14.06476510340918 0 12.94679506241776
    vertex -13.41963325068341 0 6.767681327867691
  endloop
endfacet
facet normal -0 -1 0
  outer loop
    vertex 0 0 9.000000000000028
    vertex -6.66686082584821 0 11.64793241572422
    vertex -6.629655924358806 0 4.370361902266366
  endloop
endfacet
facet normal 0 -1 0
  outer loop
    vertex -20 0 2.666666666666648
    vertex -13.68677047099904 0 0.1503360376330356
    vertex -13.41963325068341 0 6.767681327867691
  endloop
endfacet
facet normal 0 -1 0
  outer loop
    vertex -13.41963325068341 0 6.767681327867691
    vertex -14.06476510340918 0 12.94679506241776
    vertex -20 0 10.33333333333331
  endloop
endfacet
facet normal -0 -1 0
  outer loop
    vertex -5.626676366212022 0 -1.246647267575956
    vertex -13.68677047099904 0 0.1503360376330356
    vertex -10 0 -5
  endloop
endfacet
facet normal 0 -1 -0
  outer loop
    vertex -10 0 18
    vertex -14.06476510340918 0 12.94679506241776
    vertex -6.66686082584821 0 11.64793241572422
  endloop
endfacet
facet normal 0 1 0
  outer loop
    vertex -20 22 2.666666666666691
    vertex -12.39920815638271 22 0.5898422031496509
    vertex -20 22 -5
  endloop
endfacet
facet normal 0 1 0
  outer loop
    vertex -10 22 -5
    vertex -5.387890976506704 22 -0.8509461967958805
    vertex 0 22 -5
  endloop
endfacet
facet normal 0 1 -0
  outer loop
    vertex 0 22 0
    vertex -6.062177826491058 22 4.499999999999986
    vertex 0 22 8.999999999999972
  endloop
endfacet
facet normal 0 1 0
  outer loop
    vertex -20 22 -5
    vertex -12.39920815638271 22 0.5898422031496509
    vertex -10 22 -5
  endloop
endfacet
facet normal 0 1 -0
  outer loop
    vertex 0 22 -5
    vertex -5.387890976506704 22 -0.8509461967958805
    vertex 0 22 0
  endloop
endfacet
facet normal 0 1 0
  outer loop
    vertex 0 22 0
    vertex -5.387890976506704 22 -0.8509461967958805
    vertex -6.062177826491058 22 4.499999999999986
  endloop
endfacet
facet normal 0 1 0
  outer loop
    vertex -12.94518013529849 22 7.223332749027106
    vertex -12.39920815638271 22 0.5898422031496509
    vertex -20 22 2.666666666666691
  endloop
endfacet
facet normal 0 1 0
  outer loop
    vertex -10 22 18
    vertex -14.06476510340919 22 12.94679506241779
    vertex -20 22 18
  endloop
endfacet
facet normal 0 1 0
  outer loop
    vertex -20 22 10.33333333333335
    vertex -12.94518013529849 22 7.223332749027106
    vertex -20 22 2.666666666666691
  endloop
endfacet
facet normal -0 1 0
  outer loop
    vertex -12.94518013529849 22 7.223332749027106
    vertex -6.666860825848208 22 11.6479324157242
    vertex -6.062177826491058 22 4.499999999999986
  endloop
endfacet
facet normal 0 1 0
  outer loop
    vertex 0 22 18
    vertex -6.666860825848208 22 11.6479324157242
    vertex -10 22 18
  endloop
endfacet
facet normal 0 1 -0
  outer loop
    vertex 0 22 8.999999999999972
    vertex -6.666860825848208 22 11.6479324157242
    vertex 0 22 18
  endloop
endfacet
facet normal 0 1 0
  outer loop
    vertex -20 22 18
    vertex -14.06476510340919 22 12.94679506241779
    vertex -20 22 10.33333333333335
  endloop
endfacet
facet normal 0 1 -0
  outer loop
    vertex -12.94518013529849 22 7.223332749027106
    vertex -14.06476510340919 22 12.94679506241779
    vertex -6.666860825848208 22 11.6479324157242
  endloop
endfacet
facet normal 0 1 -0
  outer loop
    vertex -6.062177826491058 22 4.499999999999986
    vertex -6.666860825848208 22 11.6479324157242
    vertex 0 22 8.999999999999972
  endloop
endfacet
facet normal -0 1 0
  outer loop
    vertex -20 22 10.33333333333335
    vertex -14.06476510340919 22 12.94679506241779
    vertex -12.94518013529849 22 7.223332749027106
  endloop
endfacet
facet normal 0 1 0
  outer loop
    vertex -6.062177826491058 22 4.499999999999986
    vertex -12.39920815638271 22 0.5898422031496509
    vertex -12.94518013529849 22 7.223332749027106
  endloop
endfacet
facet normal 0 1 0
  outer loop
    vertex -6.666860825848208 22 11.6479324157242
    vertex -14.06476510340919 22 12.94679506241779
    vertex -10 22 18
  endloop
endfacet
facet normal 0 1 0
  outer loop
    vertex -5.387890976506704 22 -0.8509461967958805
    vertex -12.39920815638271 22 0.5898422031496509
    vertex -6.062177826491058 22 4.499999999999986
  endloop
endfacet
facet normal 0 1 -0
  outer loop
    vertex -10 22 -5
    vertex -12.39920815638271 22 0.5898422031496509
    vertex -5.387890976506704 22 -0.8509461967958805
  endloop
endfacet
facet normal 0 0 1
  outer loop
    vertex -7.291046658793395 10.99999999999998 -5
    vertex -14.2451623393785 17.30400925066764 -5
    vertex -14.73103240491535 10.99999999999998 -5
  endloop
endfacet
facet normal -0 0 1
  outer loop
    vertex -14.73103240491535 10.99999999999998 -5
    vertex -14.24516233937851 4.695990749332332 -5
    vertex -7.291046658793395 10.99999999999998 -5
  endloop
endfacet
facet normal 0 0 1
  outer loop
    vertex -7.291046658793395 10.99999999999998 -5
    vertex -14.24516233937851 4.695990749332332 -5
    vertex -5.755808268974631 4.697314306177518 -5
  endloop
endfacet
facet normal 0 0 1
  outer loop
    vertex -5.75580826897464 17.30268569382245 -5
    vertex -14.2451623393785 17.30400925066764 -5
    vertex -7.291046658793395 10.99999999999998 -5
  endloop
endfacet
facet normal 0 0 1
  outer loop
    vertex 0 0 -5
    vertex -5.755808268974631 4.697314306177518 -5
    vertex -10 0 -5
  endloop
endfacet
facet normal -0 0 1
  outer loop
    vertex -10 22 -5
    vertex -5.75580826897464 17.30268569382245 -5
    vertex 0 22 -5
  endloop
endfacet
facet normal 0 0 1
  outer loop
    vertex -10 0 -5
    vertex -14.24516233937851 4.695990749332332 -5
    vertex -20 0 -5
  endloop
endfacet
facet normal -0 0 1
  outer loop
    vertex -20 22 -5
    vertex -14.2451623393785 17.30400925066764 -5
    vertex -10 22 -5
  endloop
endfacet
facet normal 0 0 1
  outer loop
    vertex 0 14.66666666666665 -5
    vertex -7.291046658793395 10.99999999999998 -5
    vertex 0 7.333333333333311 -5
  endloop
endfacet
facet normal 0 0 1
  outer loop
    vertex -20 7.333333333333311 -5
    vertex -14.73103240491535 10.99999999999998 -5
    vertex -20 14.66666666666665 -5
  endloop
endfacet
facet normal 0 0 1
  outer loop
    vertex 0 22 -5
    vertex -5.75580826897464 17.30268569382245 -5
    vertex 0 14.66666666666665 -5
  endloop
endfacet
facet normal 0 0 1
  outer loop
    vertex 0 7.333333333333311 -5
    vertex -5.755808268974631 4.697314306177518 -5
    vertex 0 0 -5
  endloop
endfacet
facet normal 0 0 1
  outer loop
    vertex -20 14.66666666666665 -5
    vertex -14.2451623393785 17.30400925066764 -5
    vertex -20 22 -5
  endloop
endfacet
facet normal 0 0 1
  outer loop
    vertex -20 0 -5
    vertex -14.24516233937851 4.695990749332332 -5
    vertex -20 7.333333333333311 -5
  endloop
endfacet
facet normal 0 0 1
  outer loop
    vertex -7.291046658793395 10.99999999999998 -5
    vertex -5.755808268974631 4.697314306177518 -5
    vertex 0 7.333333333333311 -5
  endloop
endfacet
facet normal 0 0 1
  outer loop
    vertex 0 14.66666666666665 -5
    vertex -5.75580826897464 17.30268569382245 -5
    vertex -7.291046658793395 10.99999999999998 -5
  endloop
endfacet
facet normal -0 0 1
  outer loop
    vertex -20 7.333333333333311 -5
    vertex -14.24516233937851 4.695990749332332 -5
    vertex -14.73103240491535 10.99999999999998 -5
  endloop
endfacet
facet normal 0 -0 1
  outer loop
    vertex -14.73103240491535 10.99999999999998 -5
    vertex -14.2451623393785 17.30400925066764 -5
    vertex -20 14.66666666666665 -5
  endloop
endfacet
facet normal 0 0 1
  outer loop
    vertex -5.755808268974631 4.697314306177518 -5
    vertex -14.24516233937851 4.695990749332332 -5
    vertex -10 0 -5
  endloop
endfacet
facet normal 0 0 1
  outer loop
    vertex -10 22 -5
    vertex -14.2451623393785 17.30400925066764 -5
    vertex -5.75580826897464 17.30268569382245 -5
  endloop
endfacet
facet normal -0 0 1
  outer loop
    vertex -12.70895334120661 10.99999999999998 18
    vertex -5.754837660621495 4.695990749332331 18
    vertex -5.268967595084646 10.99999999999998 18
  endloop
endfacet
facet normal 0 0 1
  outer loop
    vertex -5.268967595084646 10.99999999999998 18
    vertex -5.754837660621503 17.30400925066764 18
    vertex -12.70895334120661 10.99999999999998 18
  endloop
endfacet
facet normal -0 0 1
  outer loop
    vertex -14.24419173102537 4.697314306177518 18
    vertex -5.754837660621495 4.695990749332331 18
    vertex -12.70895334120661 10.99999999999998 18
  endloop
endfacet
facet normal 0 -0 1
  outer loop
    vertex -12.70895334120661 10.99999999999998 18
    vertex -5.754837660621503 17.30400925066764 18
    vertex -14.24419173102536 17.30268569382245 18
  endloop
endfacet
facet normal 0 0 1
  outer loop
    vertex -10 0 18
    vertex -14.24419173102537 4.697314306177518 18
    vertex -20 0 18
  endloop
endfacet
facet normal -0 0 1
  outer loop
    vertex -20 22 18
    vertex -14.24419173102536 17.30268569382245 18
    vertex -10 22 18
  endloop
endfacet
facet normal 0 0 1
  outer loop
    vertex 0 0 18
    vertex -5.754837660621495 4.695990749332331 18
    vertex -10 0 18
  endloop
endfacet
facet normal -0 0 1
  outer loop
    vertex -10 22 18
    vertex -5.754837660621503 17.30400925066764 18
    vertex 0 22 18
  endloop
endfacet
facet normal 0 0 1
  outer loop
    vertex -20 7.333333333333311 18
    vertex -12.70895334120661 10.99999999999998 18
    vertex -20 14.66666666666665 18
  endloop
endfacet
facet normal 0 0 1
  outer loop
    vertex 0 14.66666666666665 18
    vertex -5.268967595084646 10.99999999999998 18
    vertex 0 7.333333333333311 18
  endloop
endfacet
facet normal 0 0 1
  outer loop
    vertex -20 14.66666666666665 18
    vertex -14.24419173102536 17.30268569382245 18
    vertex -20 22 18
  endloop
endfacet
facet normal 0 0 1
  outer loop
    vertex -20 0 18
    vertex -14.24419173102537 4.697314306177518 18
    vertex -20 7.333333333333311 18
  endloop
endfacet
facet normal 0 0 1
  outer loop
    vertex 0 22 18
    vertex -5.754837660621503 17.30400925066764 18
    vertex 0 14.66666666666665 18
  endloop
endfacet
facet normal 0 0 1
  outer loop
    vertex 0 7.333333333333311 18
    vertex -5.754837660621495 4.695990749332331 18
    vertex 0 0 18
  endloop
endfacet
facet normal -0 0 1
  outer loop
    vertex -20 7.333333333333311 18
    vertex -14.24419173102537 4.697314306177518 18
    vertex -12.70895334120661 10.99999999999998 18
  endloop
endfacet
facet normal 0 0 1
  outer loop
    vertex -12.70895334120661 10.99999999999998 18
    vertex -14.24419173102536 17.30268569382245 18
    vertex -20 14.66666666666665 18
  endloop
endfacet
facet normal 0 0 1
  outer loop
    vertex -5.268967595084646 10.99999999999998 18
    vertex -5.754837660621495 4.695990749332331 18
    vertex 0 7.333333333333311 18
  endloop
endfacet
facet normal 0 0 1
  outer loop
    vertex 0 14.66666666666665 18
    vertex -5.754837660621503 17.30400925066764 18
    vertex -5.268967595084646 10.99999999999998 18
  endloop
endfacet
facet normal 0 -0 1
  outer loop
    vertex -10 0 18
    vertex -5.754837660621495 4.695990749332331 18
    vertex -14.24419173102537 4.697314306177518 18
  endloop
endfacet
facet normal 0 0 1
  outer loop
    vertex -14.24419173102536 17.30268569382245 18
    vertex -5.754837660621503 17.30400925066764 18
    vertex -10 22 18
  endloop
endfacet
facet normal 0.974928 0.222521 -0
  outer loop
    vertex -10.45 5.999999999999999 18
    vertex -10.80156051894641 7.54028727386733 22.17229811331744
    vertex -10.45 5.999999999999999 25
  endloop
endfacet
facet normal 0.974928 -0.222521 0
  outer loop
    vertex -10.45 5.999999999999999 25
    vertex -10.80156051894641 4.459712726132665 20.82770188668256
    vertex -10.45 5.999999999999999 18
  endloop
endfacet
facet normal 0.887932 0.450764 -0.091591
  outer loop
    vertex -10.45 5.999999999999999 18
    vertex -11.58995965923405 8.606569691353128 19.776842680749
    vertex -10.80156051894641 7.54028727386733 22.17229811331744
  endloop
endfacet
facet normal 0.884839 -0.456334 0.0939079
  outer loop
    vertex -10.45 5.999999999999999 25
    vertex -11.61510159629965 3.37040695087101 23.19986809142315
    vertex -10.80156051894641 4.459712726132665 20.82770188668256
  endloop
endfacet
facet normal -0.164261 -0.986264 -0.017375
  outer loop
    vertex -15.85963780212115 2.976054358140339 20.0937117678466
    vertex -13.21005068445509 2.539005911754525 19.85324592856314
    vertex -13.32340757003719 2.51507206907847 22.28346719842339
  endloop
endfacet
facet normal -0.272912 -0.955138 0.11502
  outer loop
    vertex -16.46531620671535 3.445647635719253 22.55614094173742
    vertex -15.85963780212115 2.976054358140339 20.0937117678466
    vertex -13.32340757003719 2.51507206907847 22.28346719842339
  endloop
endfacet
facet normal -0.900969 0.433884 -6.63194e-16
  outer loop
    vertex -16.2133887965985 8.775501762761508 22.35540932096646
    vertex -16.2133887965985 8.775501762761511 19.85324592856325
    vertex -17.55 6.000000000000013 20.64459067903372
  endloop
endfacet
facet normal -0.222521 0.974928 1.09465e-15
  outer loop
    vertex -13.21005068445508 9.460994088245473 20.64459067903372
    vertex -16.2133887965985 8.775501762761511 19.85324592856325
    vertex -16.2133887965985 8.775501762761508 22.35540932096646
  endloop
endfacet
facet normal -0.875509 -0.466375 -0.126408
  outer loop
    vertex -17.55 6.000000000000013 20.64459067903372
    vertex -15.85963780212115 2.976054358140339 20.0937117678466
    vertex -16.46531620671535 3.445647635719253 22.55614094173742
  endloop
endfacet
facet normal -0.222521 0.974928 0
  outer loop
    vertex -16.2133887965985 8.775501762761508 22.35540932096646
    vertex -13.21005068445508 9.460994088245473 23.14675407143686
    vertex -13.21005068445508 9.460994088245473 20.64459067903372
  endloop
endfacet
facet normal -0.92045 -0.390861 0
  outer loop
    vertex -16.46531620671535 3.445647635719253 22.55614094173742
    vertex -17.55 6.000000000000013 23.14675407143686
    vertex -17.55 6.000000000000013 20.64459067903372
  endloop
endfacet
facet normal -0.900969 0.433884 0
  outer loop
    vertex -17.55 6.000000000000013 20.64459067903372
    vertex -17.55 6.000000000000013 23.14675407143686
    vertex -16.2133887965985 8.775501762761508 22.35540932096646
  endloop
endfacet
facet normal 0.2207 -0.96695 0.127666
  outer loop
    vertex -14.78994931554493 2.539005911754529 25
    vertex -13.32340757003719 2.51507206907847 22.28346719842339
    vertex -11.7866112034015 3.224498237238492 25
  endloop
endfacet
facet normal 0.22058 0.966426 -0.131776
  outer loop
    vertex -14.78994931554491 9.460994088245474 18
    vertex -13.21005068445508 9.460994088245473 20.64459067903372
    vertex -11.7866112034015 8.775501762761504 18
  endloop
endfacet
facet normal -0.991279 3.42962e-15 -0.131776
  outer loop
    vertex -17.19843948105359 4.459712726132683 18
    vertex -17.55 6.000000000000013 20.64459067903372
    vertex -17.19843948105358 7.540287273867341 18
  endloop
endfacet
facet normal -0.292709 -0.944411 -0.149701
  outer loop
    vertex -14.78994931554493 2.539005911754529 25
    vertex -16.46531620671535 3.445647635719253 22.55614094173742
    vertex -13.32340757003719 2.51507206907847 22.28346719842339
  endloop
endfacet
facet normal -0.617688 -0.774557 0.1361
  outer loop
    vertex -17.19843948105359 4.459712726132683 25
    vertex -16.46531620671535 3.445647635719253 22.55614094173742
    vertex -14.78994931554493 2.539005911754529 25
  endloop
endfacet
facet normal -0.618053 0.775013 0.131776
  outer loop
    vertex -14.78994931554491 9.460994088245474 25
    vertex -16.2133887965985 8.775501762761508 22.35540932096646
    vertex -17.19843948105358 7.540287273867341 25
  endloop
endfacet
facet normal 0.62349 0.781831 -0
  outer loop
    vertex -13.21005068445508 9.460994088245473 20.64459067903372
    vertex -13.21005068445508 9.460994088245473 23.14675407143686
    vertex -10.80156051894641 7.54028727386733 22.17229811331744
  endloop
endfacet
facet normal 0.618121 -0.7858 0.0210931
  outer loop
    vertex -13.32340757003719 2.51507206907847 22.28346719842339
    vertex -13.21005068445509 2.539005911754525 19.85324592856314
    vertex -10.80156051894641 4.459712726132665 20.82770188668256
  endloop
endfacet
facet normal 0.53567 0.822788 0.189944
  outer loop
    vertex -10.80156051894641 7.54028727386733 22.17229811331744
    vertex -11.58995965923405 8.606569691353128 19.776842680749
    vertex -13.21005068445508 9.460994088245473 20.64459067903372
  endloop
endfacet
facet normal 0.522704 -0.828441 -0.20116
  outer loop
    vertex -10.80156051894641 4.459712726132665 20.82770188668256
    vertex -11.61510159629965 3.37040695087101 23.19986809142315
    vertex -13.32340757003719 2.51507206907847 22.28346719842339
  endloop
endfacet
facet normal 0.894085 -0.430569 -0.123377
  outer loop
    vertex -10.45 5.999999999999999 18
    vertex -10.80156051894641 4.459712726132665 20.82770188668256
    vertex -11.7866112034015 3.224498237238492 18
  endloop
endfacet
facet normal 0.894085 0.430569 0.123377
  outer loop
    vertex -10.45 5.999999999999999 25
    vertex -10.80156051894641 7.54028727386733 22.17229811331744
    vertex -11.7866112034015 8.775501762761504 25
  endloop
endfacet
facet normal 0.579198 -0.80157 0.148379
  outer loop
    vertex -10.80156051894641 4.459712726132665 20.82770188668256
    vertex -13.21005068445509 2.539005911754525 19.85324592856314
    vertex -11.7866112034015 3.224498237238492 18
  endloop
endfacet
facet normal 0.579198 0.80157 -0.148379
  outer loop
    vertex -10.80156051894641 7.54028727386733 22.17229811331744
    vertex -13.21005068445508 9.460994088245473 23.14675407143686
    vertex -11.7866112034015 8.775501762761504 25
  endloop
endfacet
facet normal -0.258328 0.953651 0.154327
  outer loop
    vertex -14.78994931554491 9.460994088245474 18
    vertex -16.2133887965985 8.775501762761511 19.85324592856325
    vertex -13.21005068445508 9.460994088245473 20.64459067903372
  endloop
endfacet
facet normal -0.872257 0.464058 0.154327
  outer loop
    vertex -17.55 6.000000000000013 20.64459067903372
    vertex -16.2133887965985 8.775501762761511 19.85324592856325
    vertex -17.19843948105358 7.540287273867341 18
  endloop
endfacet
facet normal -0.843846 -0.504831 0.181851
  outer loop
    vertex -17.19843948105359 4.459712726132683 18
    vertex -15.85963780212115 2.976054358140339 20.0937117678466
    vertex -17.55 6.000000000000013 20.64459067903372
  endloop
endfacet
facet normal -0.923245 -0.36282 -0.126411
  outer loop
    vertex -17.19843948105359 4.459712726132683 25
    vertex -17.55 6.000000000000013 23.14675407143686
    vertex -16.46531620671535 3.445647635719253 22.55614094173742
  endloop
endfacet
facet normal -0.181028 0.971294 -0.154327
  outer loop
    vertex -14.78994931554491 9.460994088245474 25
    vertex -13.21005068445508 9.460994088245473 23.14675407143686
    vertex -16.2133887965985 8.775501762761508 22.35540932096646
  endloop
endfacet
facet normal -0.906659 0.392623 -0.154327
  outer loop
    vertex -16.2133887965985 8.775501762761508 22.35540932096646
    vertex -17.55 6.000000000000013 23.14675407143686
    vertex -17.19843948105358 7.540287273867341 25
  endloop
endfacet
facet normal 0.45957 -0.887695 -0.0281655
  outer loop
    vertex -13.32340757003719 2.51507206907847 22.28346719842339
    vertex -11.61510159629965 3.37040695087101 23.19986809142315
    vertex -11.7866112034015 3.224498237238492 25
  endloop
endfacet
facet normal 0.478968 0.877306 0.0303997
  outer loop
    vertex -13.21005068445508 9.460994088245473 20.64459067903372
    vertex -11.58995965923405 8.606569691353128 19.776842680749
    vertex -11.7866112034015 8.775501762761504 18
  endloop
endfacet
facet normal -0.612565 0.768133 -0.186376
  outer loop
    vertex -17.19843948105358 7.540287273867341 18
    vertex -16.2133887965985 8.775501762761511 19.85324592856325
    vertex -14.78994931554491 9.460994088245474 18
  endloop
endfacet
facet normal -0.6161 -0.772566 -0.153501
  outer loop
    vertex -14.78994931554493 2.539005911754529 18
    vertex -15.85963780212115 2.976054358140339 20.0937117678466
    vertex -17.19843948105359 4.459712726132683 18
  endloop
endfacet
facet normal -0.150096 -0.980356 0.127958
  outer loop
    vertex -14.78994931554493 2.539005911754529 18
    vertex -13.21005068445509 2.539005911754525 19.85324592856314
    vertex -15.85963780212115 2.976054358140339 20.0937117678466
  endloop
endfacet
facet normal 0.218622 0.957846 0.186376
  outer loop
    vertex -11.7866112034015 8.775501762761504 25
    vertex -13.21005068445508 9.460994088245473 23.14675407143686
    vertex -14.78994931554491 9.460994088245474 25
  endloop
endfacet
facet normal -0.982478 3.39917e-15 0.186376
  outer loop
    vertex -17.19843948105358 7.540287273867341 25
    vertex -17.55 6.000000000000013 23.14675407143686
    vertex -17.19843948105359 4.459712726132683 25
  endloop
endfacet
facet normal 0.218622 -0.957846 -0.186376
  outer loop
    vertex -11.7866112034015 3.224498237238492 18
    vertex -13.21005068445509 2.539005911754525 19.85324592856314
    vertex -14.78994931554493 2.539005911754529 18
  endloop
endfacet
facet normal 0.899814 -0.433328 0.0506077
  outer loop
    vertex -11.7866112034015 3.224498237238492 25
    vertex -11.61510159629965 3.37040695087101 23.19986809142315
    vertex -10.45 5.999999999999999 25
  endloop
endfacet
facet normal 0.899433 0.433144 -0.0583636
  outer loop
    vertex -11.7866112034015 8.775501762761504 18
    vertex -11.58995965923405 8.606569691353128 19.776842680749
    vertex -10.45 5.999999999999999 18
  endloop
endfacet
facet normal 0 0 1
  outer loop
    vertex -11.7866112034015 8.775501762761504 25
    vertex -14 6.000000000000004 25
    vertex -10.45 5.999999999999999 25
  endloop
endfacet
facet normal 0 0 1
  outer loop
    vertex -10.45 5.999999999999999 25
    vertex -14 6.000000000000004 25
    vertex -11.7866112034015 3.224498237238492 25
  endloop
endfacet
facet normal 0 0 1
  outer loop
    vertex -14.78994931554491 9.460994088245474 25
    vertex -14 6.000000000000004 25
    vertex -11.7866112034015 8.775501762761504 25
  endloop
endfacet
facet normal 0 0 1
  outer loop
    vertex -11.7866112034015 3.224498237238492 25
    vertex -14 6.000000000000004 25
    vertex -14.78994931554493 2.539005911754529 25
  endloop
endfacet
facet normal -0 0 1
  outer loop
    vertex -17.19843948105358 7.540287273867341 25
    vertex -14 6.000000000000004 25
    vertex -14.78994931554491 9.460994088245474 25
  endloop
endfacet
facet normal 0 -0 1
  outer loop
    vertex -14.78994931554493 2.539005911754529 25
    vertex -14 6.000000000000004 25
    vertex -17.19843948105359 4.459712726132683 25
  endloop
endfacet
facet normal 0 0 1
  outer loop
    vertex -17.19843948105359 4.459712726132683 25
    vertex -14 6.000000000000004 25
    vertex -17.19843948105358 7.540287273867341 25
  endloop
endfacet
facet normal 0 -0 -1
  outer loop
    vertex -11.7866112034015 8.775501762761504 18
    vertex -10.45 5.999999999999999 18
    vertex -14 6.000000000000004 18
  endloop
endfacet
facet normal -0 0 -1
  outer loop
    vertex -10.45 5.999999999999999 18
    vertex -11.7866112034015 3.224498237238492 18
    vertex -14 6.000000000000004 18
  endloop
endfacet
facet normal 0 0 -1
  outer loop
    vertex -14.78994931554491 9.460994088245474 18
    vertex -11.7866112034015 8.775501762761504 18
    vertex -14 6.000000000000004 18
  endloop
endfacet
facet normal -0 0 -1
  outer loop
    vertex -11.7866112034015 3.224498237238492 18
    vertex -14.78994931554493 2.539005911754529 18
    vertex -14 6.000000000000004 18
  endloop
endfacet
facet normal 0 0 -1
  outer loop
    vertex -17.19843948105358 7.540287273867341 18
    vertex -14.78994931554491 9.460994088245474 18
    vertex -14 6.000000000000004 18
  endloop
endfacet
facet normal 0 0 -1
  outer loop
    vertex -14.78994931554493 2.539005911754529 18
    vertex -17.19843948105359 4.459712726132683 18
    vertex -14 6.000000000000004 18
  endloop
endfacet
facet normal 0 0 -1
  outer loop
    vertex -17.19843948105359 4.459712726132683 18
    vertex -17.19843948105358 7.540287273867341 18
    vertex -14 6.000000000000004 18
  endloop
endfacet
facet normal 0.974928 0.222521 -0
  outer loop
    vertex -6.45 16 18
    vertex -6.801560518946411 17.54028727386733 22.17229811331733
    vertex -6.45 16 25
  endloop
endfacet
facet normal 0.974928 -0.222521 0
  outer loop
    vertex -6.45 16 25
    vertex -6.801560518946414 14.45971272613266 22.35540932096628
    vertex -6.45 16 18
  endloop
endfacet
facet normal 0.913512 -0.401072 -0.0681019
  outer loop
    vertex -6.801560518946414 14.45971272613266 22.35540932096628
    vertex -7.349219811323364 13.63867317143106 19.84450747383918
    vertex -6.45 16 18
  endloop
endfacet
facet normal 0.886108 0.454061 -0.0929617
  outer loop
    vertex -6.45 16 18
    vertex -7.60497123269765 18.6203696693013 19.78975583255299
    vertex -6.801560518946411 17.54028727386733 22.17229811331733
  endloop
endfacet
facet normal -0.887135 0.461511 0
  outer loop
    vertex -12.2133887965985 18.77550176276151 22.35540932096628
    vertex -12.2133887965985 18.77550176276151 19.85324592856315
    vertex -13.54322369652633 16.21923922179737 20.58050852256107
  endloop
endfacet
facet normal -0.222521 0.974928 0
  outer loop
    vertex -9.210050684455082 19.46099408824547 20.64459067903354
    vertex -12.2133887965985 18.77550176276151 19.85324592856315
    vertex -12.2133887965985 18.77550176276151 22.35540932096628
  endloop
endfacet
facet normal -0.222521 0.974928 0
  outer loop
    vertex -12.2133887965985 18.77550176276151 22.35540932096628
    vertex -9.210050684455082 19.46099408824547 23.14675407143675
    vertex -9.210050684455082 19.46099408824547 20.64459067903354
  endloop
endfacet
facet normal -0.877039 0.479275 -0.0331481
  outer loop
    vertex -13.54322369652633 16.21923922179737 20.58050852256107
    vertex -13.5264106352487 16.40856827043329 22.87309379766953
    vertex -12.2133887965985 18.77550176276151 22.35540932096628
  endloop
endfacet
facet normal -0.909726 -0.389442 0.143993
  outer loop
    vertex -12.30002040765432 13.29585390106716 20.52830928841545
    vertex -13.54322369652633 16.21923922179737 20.58050852256107
    vertex -13.19843948105359 14.45971272613268 18
  endloop
endfacet
facet normal -0.617607 -0.774455 -0.137043
  outer loop
    vertex -10.78994931554493 12.53900591175453 18
    vertex -12.30002040765432 13.29585390106716 20.52830928841545
    vertex -13.19843948105359 14.45971272613268 18
  endloop
endfacet
facet normal -0.618053 0.775013 0.131776
  outer loop
    vertex -10.78994931554491 19.46099408824547 25
    vertex -12.2133887965985 18.77550176276151 22.35540932096628
    vertex -13.19843948105358 17.54028727386734 25
  endloop
endfacet
facet normal -0.991192 3.42932e-15 -0.132434
  outer loop
    vertex -13.19843948105359 14.45971272613268 18
    vertex -13.54322369652633 16.21923922179737 20.58050852256107
    vertex -13.19843948105358 17.54028727386734 18
  endloop
endfacet
facet normal 0.62349 -0.781831 -9.21813e-16
  outer loop
    vertex -6.801560518946414 14.45971272613266 22.35540932096628
    vertex -9.210050684455087 12.53900591175453 23.14675407143676
    vertex -9.210050684455091 12.53900591175453 20.64459067903356
  endloop
endfacet
facet normal -0.240534 -0.959945 0.143697
  outer loop
    vertex -10.78994931554493 12.53900591175453 18
    vertex -9.210050684455091 12.53900591175453 20.64459067903356
    vertex -12.30002040765432 13.29585390106716 20.52830928841545
  endloop
endfacet
facet normal 0.22058 -0.966426 -0.131776
  outer loop
    vertex -7.786611203401499 13.22449823723849 18
    vertex -9.210050684455091 12.53900591175453 20.64459067903356
    vertex -10.78994931554493 12.53900591175453 18
  endloop
endfacet
facet normal 0.22058 0.966426 -0.131776
  outer loop
    vertex -10.78994931554491 19.46099408824547 18
    vertex -9.210050684455082 19.46099408824547 20.64459067903354
    vertex -7.786611203401494 18.7755017627615 18
  endloop
endfacet
facet normal 0.893112 -0.4301 0.131776
  outer loop
    vertex -7.786611203401499 13.22449823723849 25
    vertex -6.801560518946414 14.45971272613266 22.35540932096628
    vertex -6.45 16 25
  endloop
endfacet
facet normal 0.549747 -0.821959 0.148866
  outer loop
    vertex -9.210050684455091 12.53900591175453 20.64459067903356
    vertex -7.349219811323364 13.63867317143106 19.84450747383918
    vertex -6.801560518946414 14.45971272613266 22.35540932096628
  endloop
endfacet
facet normal 0.62349 0.781831 -0
  outer loop
    vertex -9.210050684455082 19.46099408824547 20.64459067903354
    vertex -9.210050684455082 19.46099408824547 23.14675407143675
    vertex -6.801560518946411 17.54028727386733 22.17229811331733
  endloop
endfacet
facet normal -0.988319 3.41938e-15 0.1524
  outer loop
    vertex -13.19843948105358 17.54028727386734 25
    vertex -13.5264106352487 16.40856827043329 22.87309379766953
    vertex -13.19843948105359 14.45971272613268 25
  endloop
endfacet
facet normal 0.894085 0.430569 0.123377
  outer loop
    vertex -6.45 16 25
    vertex -6.801560518946411 17.54028727386733 22.17229811331733
    vertex -7.786611203401494 18.7755017627615 25
  endloop
endfacet
facet normal -0.232079 -0.965567 -0.117556
  outer loop
    vertex -9.210050684455091 12.53900591175453 20.64459067903356
    vertex -11.63018381487142 12.84643047805645 22.89733491368371
    vertex -12.30002040765432 13.29585390106716 20.52830928841545
  endloop
endfacet
facet normal 0.53396 0.823162 0.19311
  outer loop
    vertex -6.801560518946411 17.54028727386733 22.17229811331733
    vertex -7.60497123269765 18.6203696693013 19.78975583255299
    vertex -9.210050684455082 19.46099408824547 20.64459067903354
  endloop
endfacet
facet normal 0.579198 0.80157 -0.148379
  outer loop
    vertex -6.801560518946411 17.54028727386733 22.17229811331733
    vertex -9.210050684455082 19.46099408824547 23.14675407143675
    vertex -7.786611203401494 18.7755017627615 25
  endloop
endfacet
facet normal -0.863 0.487094 0.134053
  outer loop
    vertex -13.54322369652633 16.21923922179737 20.58050852256107
    vertex -12.2133887965985 18.77550176276151 19.85324592856315
    vertex -13.19843948105358 17.54028727386734 18
  endloop
endfacet
facet normal -0.181028 0.971294 -0.154327
  outer loop
    vertex -10.78994931554491 19.46099408824547 25
    vertex -9.210050684455082 19.46099408824547 23.14675407143675
    vertex -12.2133887965985 18.77550176276151 22.35540932096628
  endloop
endfacet
facet normal -0.258328 0.953651 0.154327
  outer loop
    vertex -10.78994931554491 19.46099408824547 18
    vertex -12.2133887965985 18.77550176276151 19.85324592856315
    vertex -9.210050684455082 19.46099408824547 20.64459067903354
  endloop
endfacet
facet normal 0.475417 0.879316 0.0279677
  outer loop
    vertex -9.210050684455082 19.46099408824547 20.64459067903354
    vertex -7.60497123269765 18.6203696693013 19.78975583255299
    vertex -7.786611203401494 18.7755017627615 18
  endloop
endfacet
facet normal -0.986133 -0.165955 2.92536e-14
  outer loop
    vertex -13.19843948105359 14.45971272613268 25
    vertex -13.5264106352487 16.40856827043329 22.87309379766953
    vertex -13.19843948105371 14.45971272613292 22.49783660759676
  endloop
endfacet
facet normal 0.584529 -0.79656 -0.154327
  outer loop
    vertex -7.786611203401499 13.22449823723849 25
    vertex -9.210050684455087 12.53900591175453 23.14675407143676
    vertex -6.801560518946414 14.45971272613266 22.35540932096628
  endloop
endfacet
facet normal -0.617898 -0.774819 0.133631
  outer loop
    vertex -13.19843948105359 14.45971272613268 25
    vertex -11.63018381487142 12.84643047805645 22.89733491368371
    vertex -10.78994931554493 12.53900591175453 25
  endloop
endfacet
facet normal 0.528207 -0.846635 0.0648529
  outer loop
    vertex -7.786611203401499 13.22449823723849 18
    vertex -7.349219811323364 13.63867317143106 19.84450747383918
    vertex -9.210050684455091 12.53900591175453 20.64459067903356
  endloop
endfacet
facet normal -0.126015 -0.992028 1.78924e-16
  outer loop
    vertex -9.210050684455087 12.53900591175453 23.14675407143676
    vertex -11.63018381487142 12.84643047805645 22.89733491368371
    vertex -9.210050684455091 12.53900591175453 20.64459067903356
  endloop
endfacet
facet normal -0.905141 -0.381575 -0.187403
  outer loop
    vertex -12.30002040765432 13.29585390106716 20.52830928841545
    vertex -13.19843948105371 14.45971272613292 22.49783660759676
    vertex -13.54322369652633 16.21923922179737 20.58050852256107
  endloop
endfacet
facet normal -0.612565 0.768133 -0.186376
  outer loop
    vertex -13.19843948105358 17.54028727386734 18
    vertex -12.2133887965985 18.77550176276151 19.85324592856315
    vertex -10.78994931554491 19.46099408824547 18
  endloop
endfacet
facet normal 0.218622 -0.957846 0.186376
  outer loop
    vertex -10.78994931554493 12.53900591175453 25
    vertex -9.210050684455087 12.53900591175453 23.14675407143676
    vertex -7.786611203401499 13.22449823723849 25
  endloop
endfacet
facet normal 0.218622 0.957846 0.186376
  outer loop
    vertex -7.786611203401494 18.7755017627615 25
    vertex -9.210050684455082 19.46099408824547 23.14675407143675
    vertex -10.78994931554491 19.46099408824547 25
  endloop
endfacet
facet normal -0.717042 -0.69703 -3.27399e-14
  outer loop
    vertex -13.19843948105371 14.45971272613292 22.49783660759676
    vertex -11.63018381487142 12.84643047805645 22.89733491368371
    vertex -13.19843948105359 14.45971272613268 25
  endloop
endfacet
facet normal -0.879158 0.463419 -0.111016
  outer loop
    vertex -12.2133887965985 18.77550176276151 22.35540932096628
    vertex -13.5264106352487 16.40856827043329 22.87309379766953
    vertex -13.19843948105358 17.54028727386734 25
  endloop
endfacet
facet normal 0.899666 0.433256 -0.0537522
  outer loop
    vertex -7.786611203401494 18.7755017627615 18
    vertex -7.60497123269765 18.6203696693013 19.78975583255299
    vertex -6.45 16 18
  endloop
endfacet
facet normal 0.894945 -0.430983 -0.115445
  outer loop
    vertex -6.45 16 18
    vertex -7.349219811323364 13.63867317143106 19.84450747383918
    vertex -7.786611203401499 13.22449823723849 18
  endloop
endfacet
facet normal -0.985233 -0.169897 0.021256
  outer loop
    vertex -13.19843948105371 14.45971272613292 22.49783660759676
    vertex -13.5264106352487 16.40856827043329 22.87309379766953
    vertex -13.54322369652633 16.21923922179737 20.58050852256107
  endloop
endfacet
facet normal -0.115418 -0.988432 -0.0983942
  outer loop
    vertex -10.78994931554493 12.53900591175453 25
    vertex -11.63018381487142 12.84643047805645 22.89733491368371
    vertex -9.210050684455087 12.53900591175453 23.14675407143676
  endloop
endfacet
facet normal -0.724223 -0.685505 0.0747264
  outer loop
    vertex -12.30002040765432 13.29585390106716 20.52830928841545
    vertex -11.63018381487142 12.84643047805645 22.89733491368371
    vertex -13.19843948105371 14.45971272613292 22.49783660759676
  endloop
endfacet
facet normal 0 0 1
  outer loop
    vertex -7.786611203401494 18.7755017627615 25
    vertex -10 16 25
    vertex -6.45 16 25
  endloop
endfacet
facet normal 0 0 1
  outer loop
    vertex -6.45 16 25
    vertex -10 16 25
    vertex -7.786611203401499 13.22449823723849 25
  endloop
endfacet
facet normal 0 0 1
  outer loop
    vertex -10.78994931554491 19.46099408824547 25
    vertex -10 16 25
    vertex -7.786611203401494 18.7755017627615 25
  endloop
endfacet
facet normal 0 0 1
  outer loop
    vertex -7.786611203401499 13.22449823723849 25
    vertex -10 16 25
    vertex -10.78994931554493 12.53900591175453 25
  endloop
endfacet
facet normal -0 0 1
  outer loop
    vertex -13.19843948105358 17.54028727386734 25
    vertex -10 16 25
    vertex -10.78994931554491 19.46099408824547 25
  endloop
endfacet
facet normal 0 -0 1
  outer loop
    vertex -10.78994931554493 12.53900591175453 25
    vertex -10 16 25
    vertex -13.19843948105359 14.45971272613268 25
  endloop
endfacet
facet normal 0 0 1
  outer loop
    vertex -13.19843948105359 14.45971272613268 25
    vertex -10 16 25
    vertex -13.19843948105358 17.54028727386734 25
  endloop
endfacet
facet normal 0 -0 -1
  outer loop
    vertex -7.786611203401494 18.7755017627615 18
    vertex -6.45 16 18
    vertex -10 16 18
  endloop
endfacet
facet normal -0 0 -1
  outer loop
    vertex -6.45 16 18
    vertex -7.786611203401499 13.22449823723849 18
    vertex -10 16 18
  endloop
endfacet
facet normal 0 0 -1
  outer loop
    vertex -10.78994931554491 19.46099408824547 18
    vertex -7.786611203401494 18.7755017627615 18
    vertex -10 16 18
  endloop
endfacet
facet normal -0 0 -1
  outer loop
    vertex -7.786611203401499 13.22449823723849 18
    vertex -10.78994931554493 12.53900591175453 18
    vertex -10 16 18
  endloop
endfacet
facet normal 0 0 -1
  outer loop
    vertex -13.19843948105358 17.54028727386734 18
    vertex -10.78994931554491 19.46099408824547 18
    vertex -10 16 18
  endloop
endfacet
facet normal 0 0 -1
  outer loop
    vertex -10.78994931554493 12.53900591175453 18
    vertex -13.19843948105359 14.45971272613268 18
    vertex -10 16 18
  endloop
endfacet
facet normal 0 0 -1
  outer loop
    vertex -13.19843948105359 14.45971272613268 18
    vertex -13.19843948105358 17.54028727386734 18
    vertex -10 16 18
  endloop
endfacet
endsolid Created by Gmsh
